<svg width="40" height="29" viewBox="0 0 40 29" fill="none" xmlns="http://www.w3.org/2000/svg">
<path d="M2.94332 20.4595L2.73297 20.8204C1.6227 22.7253 2.26688 25.1695 4.17178 26.2798L4.17179 26.2798C6.07669 27.3901 8.52096 26.7459 9.63123 24.841L9.84158 24.4801C10.9518 22.5752 10.3077 20.1309 8.40277 19.0207L8.40276 19.0206C6.49786 17.9104 4.05359 18.5546 2.94332 20.4595Z" fill="#00A1FF"/>
<path opacity="0.25" d="M7.36734 8.15956L16.9941 24.8336C18.0965 26.7431 20.5381 27.3973 22.4476 26.2949L22.4476 26.2949C24.3571 25.1925 25.0113 22.7509 23.9089 20.8414L14.2821 4.16734C13.1797 2.25789 10.7381 1.60367 8.8286 2.70609C6.91915 3.80851 6.26492 6.25012 7.36734 8.15956Z" fill="#00A1FF"/>
<path opacity="0.25" d="M20.7404 8.15956L30.3672 24.8336C31.4696 26.7431 33.9112 27.3973 35.8206 26.2949L35.8207 26.2949C37.7301 25.1925 38.3843 22.7509 37.2819 20.8414L27.6551 4.16734C26.5527 2.25789 24.1111 1.60367 22.2016 2.70609C20.2922 3.80851 19.638 6.25012 20.7404 8.15956Z" fill="#00A1FF"/>
<path d="M7.36676 8.15917L12.9726 17.8688C14.0751 19.7783 16.5167 20.4325 18.4261 19.3301L18.4261 19.3301C20.3356 18.2277 20.9898 15.7861 19.8874 13.8766L14.2815 4.16695C13.1791 2.2575 10.7375 1.60327 8.82801 2.70569C6.91856 3.80812 6.26434 6.24972 7.36676 8.15917Z" fill="#00A1FF"/>
<path d="M20.7415 8.15949L26.4199 17.9947C27.5223 19.9042 29.9639 20.5584 31.8734 19.456L31.8734 19.456C33.7828 18.3536 34.4371 15.912 33.3346 14.0025L27.6563 4.16727C26.5538 2.25782 24.1122 1.60359 22.2028 2.70602C20.2933 3.80844 19.6391 6.25004 20.7415 8.15949Z" fill="#00A1FF"/>
</svg>
