<svg xmlns="http://www.w3.org/2000/svg" viewBox="0 0 1080 1080"><g data-name="Empty shopping cart"><path fill="#5e1776" d="M705.65 352.57c20.46 52 33 87.37 33 148.57 14-5.26 30.41-8.26 44.53-9.58l19.86-178.32Z"/><path fill="#fff" d="m683.32 711.64-3.08 17.49-56.16 54.93c-10.1 2.62-21.08 3-30.81-2.24-43.11-23.1-103.4-185.71-103.4-185.71a89.25 89.25 0 0 1-24.05 8.11c-5.91 8.54-15.44 12.81-18.57 11.6a5.23 5.23 0 0 1-3.26-6.6s-5 2.88-8.95.76c-3.49-1.88-3.81-6.79-.75-9.7-3.47.27-6.47.39-8.65-3.49-.43-.77.13-8.27 12.41-18.61-.64.43-7.21 3.76-14.34 8.26-8.26 7.33-15.06 17-20.08 15.77-8.17-2-.5-23.63 12.2-34.16 17.88-14.84 39.61-25.63 56.81-28.11 37.78-5.45 62.13 27.89 62.13 27.89 24.49 30.27 88.39 116.54 104.71 139.41 17.18 5.13 30.88 5.31 43.84 4.4Z"/><path fill="#e65c39" d="M979.74 945.27c-23.15 40.33-314.51 10-325.07-8.46 1.41-39.95 6.93-85.34 12.47-124.76 2.23.33 3.45.69 5.61-.27 4.67-2.06 8-8.56 10.77-13.19l1 5.13a11.91 11.91 0 0 0 7.29 9c3.91 1.7 10.9 2.16 13.62-1 2.18-2.51.77-6.42-.79-9.25l-.66-1.21.88-1c3.61-4.29 8.39-6.33 17.06-10l1-.39c62.64 24.56 100.42 49.48 151 67.43 49.22 17.49 83.48 1.48 98.8-28.91.71-1.4 1.42-2.86 2.18-4.48l3.81.89c-.84 41.61 1.03 108.61 1.03 120.47ZM1008.35 759.74l-.31 1.46c-22.09 1.63-32.22 1.29-31.53 1.29-23.2 0-57.06-2.74-77.61-11.42-.43-.18-.29-.08-.63-.42a1 1 0 0 1-.6-.13 39.33 39.33 0 0 1-4.08-2.09 47.66 47.66 0 0 0 4.66 2.46l-3.49 10.48C842 748 736.32 720.76 683 728.72l-2.75.41c.8-4.54 2.38-13.61 3.08-17.49l1.11-.38-.92-.72-.14.8c-17.13 1.22-30.11-.26-43.9-4.11-3.61-5.1-14.48-19.94-17.74-24.4 8.73-27.94 46-142.14 69.92-159.28 12.68-9.06 28.25-16.57 46.27-22.34.59-.18.42-.16.78-.09 8.26-3.1 26.51-7.58 45-9.63l-.33 2.52c-1.29 10.08-2.78 33.84 11.3 36.78 23.6 5.1 52-21.69 67.05-40.62 41.39 1.26 113.07 9.39 136.77 43.45 27.29 39.22 31.17 127.98 9.85 226.12Z"/><path fill="#5e1776" d="M738.68 503.14a2 2 0 0 1-1.14-.36 2 2 0 0 1-.86-1.64c0-61.14-12.5-96-32.89-147.84a2 2 0 0 1 1.11-2.59l97.42-39.32a2 2 0 0 1 2.73 2.07L785.2 491.78a2 2 0 0 1-1.8 1.77c-16.17 1.51-31.8 4.87-44 9.46a2.17 2.17 0 0 1-.72.13Zm-30.45-149.46c19.83 50.46 32.07 85.23 32.44 144.61a182.81 182.81 0 0 1 40.73-8.56l19.31-173.38ZM447.43 604a7.39 7.39 0 0 1-7.25-5c-2.56-6.78 1.87-18 9.87-25.07a2 2 0 0 1 2.64 3c-7.44 6.54-10.54 16-8.77 20.64a3.36 3.36 0 0 0 3.51 2.38c2.65 0 5.78-2.64 9.1-5.43 4.09-3.44 8.72-7.35 14-7.18a1.78 1.78 0 0 1 .56.1c.12 0 13.17 3.92 31.36-11.83a2 2 0 0 1 2.62 3c-18.65 16.14-32.55 13.34-34.9 12.7-3.63 0-7.39 3.19-11 6.25-3.96 3.37-7.63 6.44-11.74 6.44ZM600.77 786.74a1.77 1.77 0 0 1-.5-.07 35.08 35.08 0 0 1-7.94-3.09c-34.22-18.33-78.72-122.22-96.27-166a2 2 0 0 1 3.72-1.48c9.66 24.12 24.73 59.72 41.7 92.29 20.82 40 38.57 64.11 52.74 71.71a32 32 0 0 0 7 2.74 2 2 0 0 1-.5 3.94Z"/><path fill="#5e1776" d="M448.52 618a5.54 5.54 0 0 1-2-.32 7.06 7.06 0 0 1-4.68-5.46 10.32 10.32 0 0 1-7.75-.49 7.37 7.37 0 0 1-3.83-5.6 8.21 8.21 0 0 1 .39-3.81 8.27 8.27 0 0 1-6.76-4.56c-1-1.87.07-10.34 12.86-21.12a2 2 0 0 1 2.58 3.06c-9.93 8.36-11.79 14.74-11.8 16.37 1.51 2.48 3.33 2.46 6.6 2.21a2 2 0 0 1 1.53 3.44 4.56 4.56 0 0 0-1.44 3.88 3.41 3.41 0 0 0 1.76 2.61c2.9 1.56 7-.71 7-.74a2 2 0 0 1 2.26.2 2 2 0 0 1 .63 2.17A3.16 3.16 0 0 0 448 614c1.76.68 10.53-2.67 16.21-10.88a2 2 0 0 1 1.32-.83c.17 0 16.76-2.83 29.08-11.82a2 2 0 1 1 2.36 3.24c-11.63 8.48-26.3 11.68-30 12.37-5.39 7.34-13.56 11.92-18.45 11.92Zm-21-21.75Z"/><path fill="#5e1776" d="M642.1 713a2 2 0 0 1-1.66-.89c-7.1-10.65-81.37-111.06-107.22-143-.3-.4-24.18-32.38-60.29-27.17-16.79 2.43-38.18 13-55.82 27.67-9.46 7.85-16.08 22.57-14.67 28.67.35 1.51 1.07 1.87 1.66 2 2.43.59 6.89-4 11.21-8.41 2.24-2.3 4.57-4.68 7.08-6.91a1.5 1.5 0 0 1 .25-.19c5.4-3.41 10-5.91 12.52-7.25.72-.39 1.46-.79 1.69-.93a2 2 0 0 1 2.65 3 11.47 11.47 0 0 1-2.44 1.46c-2.43 1.3-6.92 3.73-12.14 7-2.36 2.1-4.59 4.39-6.75 6.6-5.8 5.94-10.37 10.63-15 9.51a6.24 6.24 0 0 1-4.62-5c-1.9-8.19 6-24.36 16-32.65 18.18-15.08 40.33-26 57.81-28.55 38.52-5.55 63.78 28.35 64 28.69 25.84 31.93 100.26 132.55 107.38 143.23a2 2 0 0 1-.56 2.77 2 2 0 0 1-1.08.35ZM436.82 576.6a1.08 1.08 0 0 0-.15.14Z"/><path fill="#fff" d="m860.72 381.08.62 109.54s-36.05 46.6-66.69 40.18C776.93 527.08 784 490 784 490l4.93-50.68Z"/><path fill="#5e1776" d="M800.66 533.41a31 31 0 0 1-6.42-.66c-19.14-4-12.72-40.48-12.24-43.06l4.92-50.59a2 2 0 0 1 .73-1.36l71.81-58.21a2 2 0 0 1 3.26 1.54l.62 109.54a2 2 0 0 1-.42 1.23c-1.4 1.82-32.52 41.57-62.26 41.57Zm-9.84-93.09L786 490.17a1.1 1.1 0 0 1 0 .18 91.3 91.3 0 0 0-1.33 18.65c.56 11.86 4.06 18.55 10.39 19.88 27.35 5.74 60.19-33.82 64.28-38.91l-.6-104.67Z"/><path fill="#fff" d="M831.05 435.43c-9.66 18.36-40.66 32.36-66.42 25.5C717.22 448.3 711.3 397 705.22 356.7c-10-66 34-91.67 82.52-90.32S874.44 311 873 362.94c-.4 14.37-5.15 28.21-12.84 40.73"/><path fill="#5e1776" d="M778.79 464.74a56.61 56.61 0 0 1-14.67-1.88c-47-12.5-54.3-61.78-60.21-101.38l-.67-4.48c-4.29-28.44.88-51.16 15.36-67.53 15-17 39.61-25.92 69.19-25.09 24 .66 46.34 11.31 62.81 30s25.1 43 24.39 68.65c-.39 14.13-4.81 28.17-13.14 41.72a2 2 0 0 1-3.41-2.1c8-12.94 12.18-26.31 12.55-39.74.69-24.63-7.62-48-23.39-65.89s-37-28-59.92-28.62c-28.36-.78-51.84 7.65-66.09 23.75-13.65 15.44-18.5 37.07-14.39 64.28l.67 4.49c2.89 19.4 6.18 41.4 14.3 59.62 9.21 20.65 23.27 33.24 43 38.49 20.79 5.53 53.33-4 64.13-24.5a2 2 0 1 1 3.54 1.86c-8.07 15.27-30.84 28.35-54.05 28.35Z"/><path fill="#5e1776" d="M765.48 410.45a8 8 0 0 1-6.59-2.73c-.88-1.11-3.08-5.61 5.28-16.8a2 2 0 0 1 3.21 2.4c-3.69 4.94-6.29 10.73-5.35 11.93 1.54 1.95 5.85 1.06 7.23.6a2 2 0 1 1 1.29 3.78 17.13 17.13 0 0 1-5.07.82ZM794 386.53a2 2 0 0 1-2-1.88l-.43-6.78a2 2 0 1 1 4-.25l.44 6.78a2 2 0 0 1-1.87 2.12ZM743.77 389.12a2 2 0 0 1-2-1.87l-.44-6.78a2 2 0 0 1 4-.26l.43 6.78a2 2 0 0 1-1.86 2.13ZM797.4 357a2 2 0 0 1-1.6-.79c-2.43-3.19-6-1.64-6.41-1.45a2 2 0 0 1-1.74-3.6 9.16 9.16 0 0 1 11.35 2.63 2 2 0 0 1-.38 2.81 2 2 0 0 1-1.22.4ZM737.47 360.82a2 2 0 0 1-1.5-3.32 9.17 9.17 0 0 1 11.49-1.91 2 2 0 0 1-2 3.46 5.18 5.18 0 0 0-6.48 1.11 2 2 0 0 1-1.51.66ZM779.8 440.54a12.88 12.88 0 0 1-1.84-.14c-5.51-.83-8.74-2.59-9.88-5.39a6.33 6.33 0 0 1 .89-6 2.35 2.35 0 0 1 .3-.33 9.72 9.72 0 0 1 7.42-2c4.28.43 8.34 2.89 10 5a4.67 4.67 0 0 1 .44 5.39c-1.28 2.16-4.13 3.47-7.33 3.47Zm-7.73-8.94a2.24 2.24 0 0 0-.28 1.92c.26.61 1.43 2.12 6.76 2.92 2.88.44 4.66-.63 5.11-1.41.16-.27.19-.51-.12-.9a12.1 12.1 0 0 0-7.25-3.48 5.84 5.84 0 0 0-4.22.95Z"/><path fill="#5e1776" d="M770.56 430.24c4.49-3.79 12.32-.18 14.55 2.65s-1.45 6.34-6.86 5.53c-12.45-1.87-7.69-8.18-7.69-8.18Z"/><path fill="#5e1776" d="M847.18 386.17c.71 2.89 5-19.35 8.83-23.46 8.94.12 4.32 18.8 4.73 44.57.38 23.27.84 82.9.84 82.9 16.1.44 54.39 2.7 90.15 13.11-.37-76.58-9.18-233.55-97.13-254.51-28.85-54.42-103-32.95-139.92-10.67-50.14-8.87-64.78 30.55-37.75 53.45-48.81 25.53-9.76 65.32 27.52 63.19 2.62-14.26-1.24-27.52 28-29.78 34.23-2.63 50.87 11.08 71-6.75 1.99 27.15 34.55 25.15 43.73 67.95Z"/><path fill="#5e1776" d="M951.73 505.29a1.77 1.77 0 0 1-.56-.08c-36.12-10.52-74.72-12.62-89.64-13a2 2 0 0 1-1.95-2c0-.59-.47-59.88-.84-82.88-.12-7.7.2-14.7.48-20.88.45-10 .85-18.6-1.45-21a1.84 1.84 0 0 0-.87-.55c-1.77 2.89-3.9 10.43-5.23 15.12-2 7.2-2.43 8.5-4.36 8.46a2.19 2.19 0 0 1-2.07-1.79.43.43 0 0 1 0-.05c-4.82-22.43-16.16-32.12-26.16-40.67-7.73-6.61-15.08-12.89-17.15-23.87-12.3 9.35-23.81 8-38.11 6.24C755 327.22 745 326 732.64 327c-23 1.77-24 10-25.3 21.42-.24 2.18-.5 4.42-.92 6.72a2 2 0 0 1-1.86 1.63c-23 1.33-46.67-12.56-51.57-30.31-2.14-7.75-2.18-22.41 20.5-35.27-11.34-10.84-15-25.25-9.31-37.39 3.32-7.08 9.48-12.51 17.79-15.72 9-3.46 19.85-4.14 32.32-2 27.89-16.65 70.07-29.37 102.11-20.5 17.47 4.83 30.77 15.44 39.54 31.54 79.85 19.95 97.27 150.23 97.79 256.23a2 2 0 0 1-.8 1.61 2 2 0 0 1-1.2.33Zm-88.16-17.05c15.87.53 51.81 2.79 86.14 12.4-1.11-148.88-34.14-235.28-95.57-249.92a2 2 0 0 1-1.3-1C844.6 234.18 832 224 815.33 219.36c-22.43-6.21-61.94-2.29-99.61 20.46a2.05 2.05 0 0 1-1.39.26c-17.54-3.1-39-.69-46.53 15.39-5.25 11.19-1.16 24.75 10.42 34.57a2 2 0 0 1 .7 1.74 2 2 0 0 1-1.06 1.55c-16.83 8.8-24.29 20.18-21 32 4.26 15.39 25.46 27.94 45.91 27.44.25-1.64.44-3.27.62-4.87 1.35-11.79 2.62-22.93 29-25 12.73-1 22.94.25 31.95 1.34 15 1.8 25.77 3.1 37.82-7.6a2 2 0 0 1 3.33 1.35c.85 11.67 7.64 17.47 16.23 24.81 9.07 7.75 20.16 17.23 25.93 36.79.07-.27.15-.53.22-.79 2.38-8.4 4.38-15 6.73-17.54a2.13 2.13 0 0 1 1.48-.63 6.29 6.29 0 0 1 4.66 2c3.45 3.66 3.08 11.74 2.52 23.95-.27 6.12-.59 13.06-.47 20.64.29 20.69.69 70.59.78 81.02Z"/><path fill="#fff" d="M857.86 404.66c4.35 3.41 9.55 6 15.5 6.19 14.78.41 27.42-15 28-34.23.41-14.78-13.48-28.23-27.84-24.38A41.4 41.4 0 0 0 856 362.71"/><path fill="#5e1776" d="M874 412.85h-.64c-5.67-.16-11.28-2.39-16.68-6.61a2 2 0 0 1 2.47-3.15c4.71 3.69 9.52 5.62 14.32 5.76 6.51.18 12.81-3 17.71-9a38.52 38.52 0 0 0 8.19-23.28 23.45 23.45 0 0 0-8.91-18.63c-5-3.93-10.8-5.26-16.41-3.75a39.29 39.29 0 0 0-16.59 10 2 2 0 0 1-2.8-2.86 43.52 43.52 0 0 1 18.35-11 22.6 22.6 0 0 1 19.93 4.48 27.5 27.5 0 0 1 10.42 21.88 42.47 42.47 0 0 1-9.08 25.7c-5.6 6.76-12.78 10.46-20.28 10.46Z"/><path fill="#5e1776" d="M870.22 397a2 2 0 0 1-1.29-3.53c3.33-2.8 4.65-5.87 3.37-7.81-1.09-1.66-4.22-2.44-7.85-.61a2 2 0 0 1-2.89-1.63c-.87-11.22 5.49-15.19 9.35-16.55 7.09-2.51 16.25-.17 18.79 3.51a2 2 0 1 1-3.3 2.27c-1.3-1.88-8.33-4.08-14.15-2-4.23 1.49-6.49 4.77-6.75 9.75 4.55-1.19 8.4.43 10.14 3.07 2 3 1.91 8-4.14 13.07a2 2 0 0 1-1.28.46Z"/><path fill="#fff" d="M898.9 751.07c-1.51 3.62-4.1 10.3-4.1 10.3-85.68-21.93-207.8-50.85-238.7-21.93-19.51 18.29-39.44 44.54-29.44 51.83 7 5.08 16.51-7.06 21.08-13.83-4.17 7.08-11.12 21.11-3.76 25.57 9.63 5.83 22.73-19.74 22.73-19.74s-9.17 24.41.78 28.61c9.52 4 17.21-16.49 17.93-18.46-.52 1.53-4.58 14.49 6.42 19.3 6.07 2.65 20.65 2.44 12.17-11.35 3.82-5.26 8.9-7.31 18.91-11.58 65.93 26.14 100.19 49.41 151 67.45 47.43 16.84 82.72 3 98.8-28.91 14-27.81 22.48-66.1 22.48-66.1-43.01.6-76.52-2.56-96.3-11.16Zm-251.1 26.27c1.4-2.36 2.47-3.93 2.56-4.07-.09.17-1.04 1.81-2.56 4.07Z"/><path fill="#fff" d="M650.36 773.27c-.09.17-1 1.81-2.56 4.07 1.4-2.34 2.47-3.93 2.56-4.07Z"/><path fill="#5e1776" d="M912.24 866.45c-12 0-25.17-2.41-39-7.33-26.17-9.29-48.36-20.16-71.85-31.66-21.94-10.74-46.78-22.91-78.39-35.46l-.15.06c-8.49 3.62-13.07 5.57-16.38 9.51 3.37 6.12 2.21 9.64.55 11.53-3.47 4-11.48 3.44-15.93 1.5a13.88 13.88 0 0 1-8.44-10.45c-2.34 3.95-5.43 7.91-9 9.51a8.33 8.33 0 0 1-6.84.11c-5.09-2.15-6.88-8.22-5.32-18v-.26c-3.39 4.49-7.64 8.87-12 10.1a8 8 0 0 1-6.52-.8 8.41 8.41 0 0 1-3.93-5.67 19.18 19.18 0 0 1 .82-9.12 17.88 17.88 0 0 1-7.63 4.33 8.1 8.1 0 0 1-6.73-1.38 8.6 8.6 0 0 1-3.47-6.65c-.7-11.49 15.93-32.51 32.72-48.25 14.67-13.75 49.23-16.32 105.66-7.87 46.55 7 99 20.07 144.57 31.8a2 2 0 1 1-1 3.87c-74.85-19.28-214.17-55.17-246.49-24.88C641.38 756 625.41 776.31 626 786a4.52 4.52 0 0 0 1.83 3.67 4.14 4.14 0 0 0 3.53.7c5-1.06 10.92-8.45 14.62-13.89 1.45-2.48 2.59-4.14 2.73-4.35a2 2 0 0 1 3.38 2.13c-.3.54-1.33 2.3-2.86 4.57-3.34 5.75-7.4 14.34-6.31 19.41a4.45 4.45 0 0 0 2.08 3.06 4 4 0 0 0 3.35.38c6.39-1.81 14.12-14.56 16.56-19.32a2 2 0 0 1 3.65 1.62c-2.2 5.86-7 23.24-.31 26.06a4.33 4.33 0 0 0 3.67-.08c5.24-2.32 9.95-12.68 11.51-17 0-.15.1-.28.15-.42a2 2 0 0 1 3.76 1.36l-.06.17c-.5 1.45-4 12.69 5.35 16.78 3.56 1.56 9.48 1.65 11.31-.45 1.67-1.93-.31-5.85-1.65-8a2 2 0 0 1 .09-2.22c4-5.54 9.28-7.79 18.83-11.86l.9-.38a2 2 0 0 1 1.53 0c32.19 12.75 57.36 25.06 79.51 35.93 23.38 11.45 45.47 22.27 71.42 31.49 43.68 15.51 79.7 5.07 96.35-27.93 7.68-15.22 13.67-33.7 17.35-46.52a2 2 0 1 1 3.84 1.11c-3.72 13-9.8 31.71-17.62 47.22-12.31 24.39-34.49 37.21-62.25 37.21ZM976.53 764.48c-46.85 0-78.57-8.87-86.73-16.39a5.56 5.56 0 0 1-2.13-4 2 2 0 0 1 0-.35c6.75-38.51 14.7-93.18 19.22-127.68a2 2 0 0 1 4 .52c-4.52 34.46-12.45 89-19.2 127.57.53 1.6 8.55 7.15 30.89 11.55 16.7 3.29 44.74 6.56 83.83 3.58 21.2-97.68 17.47-185.72-9.58-224.56a2 2 0 0 1 3.28-2.28c27.79 39.9 31.67 129.85 9.89 229.15a2 2 0 0 1-1.8 1.57c-11.2.93-21.77 1.32-31.67 1.32Zm31.47-3.28ZM631 656.34a2 2 0 0 1-1.89-2.64c17.81-52.84 42.92-118.6 61.34-131.77 38.78-27.71 92-32.32 92.56-32.36a2 2 0 1 1 .33 4c-.53.05-52.7 4.58-90.57 31.64-13.65 9.79-34.91 55.86-59.83 129.79a2 2 0 0 1-1.94 1.34ZM979.74 947.27a2 2 0 0 1-2-2c0-3.45-.15-11.23-.33-21.09-.36-18.85-.9-47.35-.93-72.91a2 2 0 0 1 2-2 2 2 0 0 1 2 2c0 25.52.57 54 .93 72.84.19 10.26.33 17.67.33 21.16a2 2 0 0 1-2 2ZM654.67 938.8h-.06a2 2 0 0 1-1.94-2.07c.89-27 4.08-61.56 9.48-102.85a2 2 0 1 1 4 .52c-5.39 41.16-8.57 75.64-9.45 102.47a2 2 0 0 1-2.03 1.93Z"/><path fill="#5e1776" d="M680.24 731.19h-.34a2 2 0 0 1-1.63-2.31c7.81-45.19 16.8-91.78 26-134.75a2 2 0 1 1 3.91.84c-9.18 42.92-18.16 89.46-26 134.59a2 2 0 0 1-1.94 1.63Z"/><path fill="#ffc804" d="M579.36 477.67a32.41 32.41 0 1 1 32.41-32.41 32.45 32.45 0 0 1-32.41 32.41Zm0-60.82a28.41 28.41 0 1 0 28.41 28.41 28.44 28.44 0 0 0-28.41-28.41ZM905.71 171.52a2 2 0 0 1-1.41-3.41l52.7-52.66a2 2 0 0 1 2.83 2.83l-52.66 52.65a2 2 0 0 1-1.46.59Z"/><path fill="#ffc804" d="M958.36 171.52a2 2 0 0 1-1.41-.59l-52.65-52.65a2 2 0 0 1 2.82-2.83l52.66 52.66a2 2 0 0 1 0 2.82 2 2 0 0 1-1.42.59ZM140.84 237.12H68.41a2 2 0 0 1-1.73-3l36.21-62.72a2 2 0 0 1 1.73-1 2 2 0 0 1 1.73 1l36.22 62.72a2 2 0 0 1-1.73 3Zm-69-4h65.5l-32.72-56.72Z"/><path fill="#e65c39" d="M456.36 184.56a49 49 0 0 0-97.85 3.11h18.23A30.72 30.72 0 0 1 409.46 157a31.1 31.1 0 0 1 28.71 28.7A30.76 30.76 0 0 1 421 215.32c-13.72 6.7-22.59 21.25-22.59 37.06v10.74h18.19v-10.74c0-8.9 4.85-17 12.36-20.69a48.9 48.9 0 0 0 27.4-47.13ZM407.48 282.62A13.38 13.38 0 1 0 420.86 296a13.38 13.38 0 0 0-13.38-13.38Z"/><path fill="#e65c39" d="M407.48 364.88a2 2 0 0 1-1.67-.9l-20.88-32h-78.35a24.49 24.49 0 0 1-24.47-24.47V279a2 2 0 1 1 4 0v28.53A20.5 20.5 0 0 0 306.58 328H386a2 2 0 0 1 1.68.91l19.79 30.36 19.8-30.36A2 2 0 0 1 429 328h79.43a20.49 20.49 0 0 0 20.47-20.47V137.26a20.5 20.5 0 0 0-20.47-20.47H306.58a20.5 20.5 0 0 0-20.47 20.47V253.8a2 2 0 1 1-4 0V137.26a24.5 24.5 0 0 1 24.47-24.47h201.8a24.49 24.49 0 0 1 24.47 24.47v170.22A24.49 24.49 0 0 1 508.38 332H430l-20.88 32a2 2 0 0 1-1.64.88Z"/><path fill="#ffc804" d="m315.51 665.44-14.31 14.31-127-127a10.13 10.13 0 0 1 14.32-14.32Z"/><path fill="#59c5d0" d="M495.66 951.87H122.05l-40-281.62h453.61l-40 281.62z"/><path fill="#5e1776" d="M57.98 670.25h501.74v57.44H57.98z"/><path fill="#fff" d="M461.95 918.59h-28.6l20-158.8h28.6l-20 158.8zM392.55 918.59h-28.6l10-158.8h28.6l-10 158.8zM294.55 759.79h28.6v158.8h-28.6zM253.75 918.59h-28.6l-10-158.8h28.6l10 158.8zM184.35 918.59h-28.6l-20-158.8h28.6l20 158.8z"/><circle cx="308.85" cy="673.35" r="29.56" fill="#ffc804"/><circle cx="308.85" cy="673.35" r="13.11" fill="#fff"/><path fill="#e65c39" d="M416.39 647.79a2 2 0 0 1-1.88-1.31s-.24-.66-.71-1.84a2 2 0 0 1 3.72-1.49c.5 1.28.75 2 .75 2a2 2 0 0 1-1.19 2.56 2.09 2.09 0 0 1-.69.08Zm-8.18-18.36a2 2 0 0 1-1.79-1.11l-.89-1.77a2 2 0 1 1 3.56-1.81c.31.61.62 1.21.91 1.8a2 2 0 0 1-.9 2.68 1.91 1.91 0 0 1-.89.21Zm-9.52-17.63a2 2 0 0 1-1.73-1c-.33-.57-.67-1.14-1-1.71a2 2 0 1 1 3.44-2q.53.87 1 1.74a2 2 0 0 1-.72 2.73 1.93 1.93 0 0 1-.99.24Zm-10.65-17a2 2 0 0 1-1.66-.88l-1.11-1.65a2 2 0 1 1 3.3-2.25l1.13 1.66a2 2 0 0 1-1.66 3.12Zm-247.5-2.4h-.68a2 2 0 0 1-2-2 2 2 0 0 1 2-2h1.95a2 2 0 1 1 .07 4Zm-18.48-2.22a2 2 0 0 1-.47-.06q-1-.24-2-.51a2 2 0 1 1 1-3.86q.94.26 1.89.48a2 2 0 0 1-.47 4Zm37.6-.25a2 2 0 0 1-.5-3.93l1.87-.52a2 2 0 1 1 1.12 3.84l-2 .54a1.79 1.79 0 0 1-.49.14Zm-56.27-6.78a1.94 1.94 0 0 1-.93-.23c-.61-.31-1.21-.64-1.81-1a2 2 0 0 1 1.95-3.5l1.71.93a2 2 0 0 1-.92 3.77Zm74.72-.8a2 2 0 0 1-1-3.73c.55-.32 1.1-.65 1.64-1a2 2 0 0 1 2.15 3.38c-.59.37-1.18.73-1.78 1.08a2 2 0 0 1-1.01.31Zm198.22-3.79a2 2 0 0 1-1.58-.77l-1.22-1.57a2 2 0 1 1 3.15-2.47l1.23 1.59a2 2 0 0 1-.36 2.8 1.92 1.92 0 0 1-1.22.46ZM87 571.76a2 2 0 0 1-1.35-.53c-.51-.47-1-.94-1.5-1.42A2 2 0 1 1 87 567c.46.45.93.9 1.41 1.34a2 2 0 0 1-1.41 3.42Zm106.35-2.15a2 2 0 0 1-1.48-3.34c.43-.48.86-1 1.28-1.46a2 2 0 0 1 3 2.6c-.45.52-.9 1-1.35 1.54a2 2 0 0 1-1.41.66Zm170.17-6.42a2 2 0 0 1-1.5-.67c-.43-.5-.87-1-1.32-1.48a2 2 0 1 1 3-2.68l1.35 1.5a2 2 0 0 1-.17 2.83 2 2 0 0 1-1.32.5ZM74.7 556.14a2 2 0 0 1-1.76-1.06c-.33-.61-.65-1.23-1-1.85a2 2 0 0 1 3.6-1.75q.42.87.87 1.71a2 2 0 0 1-1.76 2.95Zm130.38-2.72a2 2 0 0 1-1-.28 2 2 0 0 1-.72-2.73c.33-.57.65-1.13 1-1.71a2 2 0 0 1 3.5 1.95c-.34.6-.67 1.19-1 1.77a2 2 0 0 1-1.78 1Zm144.66-4.7a2 2 0 0 1-1.39-.56c-.48-.47-1-.93-1.43-1.38a2 2 0 0 1 2.76-2.89c.49.46 1 .93 1.45 1.4a2 2 0 0 1-1.39 3.43ZM69.57 537a2 2 0 0 1-2-2c0-.73 0-1.42.06-2.12a2 2 0 1 1 4 .24c0 .61-.05 1.23-.05 1.85a2 2 0 0 1-2.01 2.03Zm144-1.66a1.93 1.93 0 0 1-.7-.13 2 2 0 0 1-1.18-2.57c.23-.62.46-1.23.68-1.85a2 2 0 1 1 3.77 1.33c-.23.64-.46 1.28-.7 1.91a2 2 0 0 1-1.83 1.32Zm121.27 0a2 2 0 0 1-1.28-.47l-1.53-1.26a2 2 0 0 1 2.53-3.09l1.56 1.28a2 2 0 0 1-1.28 3.54ZM319 523.18a2 2 0 0 1-1.15-.36c-.54-.38-1.08-.76-1.63-1.13a2 2 0 0 1 2.27-3.3l1.66 1.15a2 2 0 0 1 .49 2.79 2 2 0 0 1-1.64.85Zm-243.74-5a2.09 2.09 0 0 1-1.09-.32 2 2 0 0 1-.59-2.77c.38-.58.77-1.16 1.19-1.73a2 2 0 0 1 3.23 2.33c-.37.52-.73 1-1.07 1.57a2 2 0 0 1-1.67.91Zm143.68-2.08a1.47 1.47 0 0 1-.36 0 2 2 0 0 1-1.61-2.32l.33-1.93a2 2 0 1 1 3.95.63c-.11.67-.23 1.34-.35 2a2 2 0 0 1-1.96 1.61Zm83.22-3.68a2 2 0 0 1-1-.27l-1.72-1a2 2 0 0 1 2-3.48l1.75 1a2 2 0 0 1-1 3.73ZM89.37 504.2a2 2 0 0 1-1.14-3.65c.56-.38 1.13-.76 1.72-1.14a2 2 0 0 1 2.16 3.37c-.55.35-1.09.71-1.61 1.07a2 2 0 0 1-1.13.35Zm195.08-1a1.94 1.94 0 0 1-.84-.19l-1.8-.83a2 2 0 1 1 1.66-3.64l1.83.84a2 2 0 0 1-.85 3.82Zm-64-7a2 2 0 0 1-2-1.91c0-.65-.07-1.3-.11-1.95a2 2 0 0 1 4-.28c0 .68.08 1.36.11 2a2 2 0 0 1-1.9 2.09Zm45.58-.64a2 2 0 0 1-.67-.12l-1.87-.66a2 2 0 1 1 1.32-3.78l1.9.68a2 2 0 0 1-.68 3.88ZM107.06 495a2 2 0 0 1-.73-3.86l1.89-.74a2 2 0 0 1 1.41 3.75c-.62.23-1.23.47-1.83.71a2.11 2.11 0 0 1-.74.14Zm139.85-5.38a2.22 2.22 0 0 1-.51-.06l-1.92-.49a2 2 0 0 1 1-3.88l1.95.5a2 2 0 0 1-.5 3.93ZM126.12 489a2 2 0 0 1-.47-3.94l2-.47a2 2 0 0 1 .9 3.9l-1.92.46a2 2 0 0 1-.51.05Zm101.26-3.58h-.33l-2-.32a2 2 0 1 1 .63-3.95l2 .33a2 2 0 0 1-.33 4Zm-81.63-.19a2 2 0 0 1-.29-4l2-.28a2 2 0 0 1 .55 4l-2 .28Zm19.87-2.2a2 2 0 0 1-.15-4l2-.15a2 2 0 1 1 .29 4l-2 .15Zm41.95-.07h-.17l-2-.15a2 2 0 0 1 .3-4l2 .16a2 2 0 0 1-.16 4Zm-22-.81a2 2 0 0 1 0-4h2a2 2 0 0 1 0 4h-2Zm30.92-5.54a2 2 0 0 1-1.86-1.28c-.24-.6-.48-1.19-.73-1.77a2 2 0 0 1 3.66-1.6c.28.64.54 1.28.8 1.93a2 2 0 0 1-1.15 2.58 1.81 1.81 0 0 1-.69.18Zm-11-16.46a2 2 0 0 1-1.36-.53c-.46-.43-.94-.85-1.43-1.26a2 2 0 0 1 2.57-3.07c.54.45 1.06.92 1.57 1.39a2 2 0 0 1 .12 2.82 2 2 0 0 1-1.46.69Zm-17.24-9.79a1.86 1.86 0 0 1-.61-.1l-1.85-.55a2 2 0 1 1 1.09-3.85l2 .59a2 2 0 0 1-.61 3.91Z"/><path fill="#59c5d0" d="M180.52 431.3c-7.05.11-19.08.85-22 4.47-4.11 5.2-1.44 14.16 6 20s16.76 6.43 20.88 1.23c2.87-3.62 1.88-14.71 1-21.08l17-19.91c6.47-.7 16.24-2.3 18.92-5.69 4.12-5.2 1.44-14.18-6-20s-16.76-6.4-20.87-1.2c-2.67 3.37-1.08 13.9.37 20.89Z"/><ellipse cx="191.35" cy="423.08" fill="#e65c39" rx="13.28" ry="27.27" transform="rotate(-51.64 191.336 423.06)"/></g></svg>