<svg width="500" height="500" viewBox="0 0 500 500" fill="none" xmlns="http://www.w3.org/2000/svg">
<path d="M500 382.398H0V382.648H500V382.398Z" fill="#D1E3FF"/>
<path d="M109.419 394.389H51.646V394.639H109.419V394.389Z" fill="#D1E3FF"/>
<path d="M235.667 388.958H209.344V389.208H235.667V388.958Z" fill="#D1E3FF"/>
<path d="M296.556 388.833H245.278V389.083H296.556V388.833Z" fill="#D1E3FF"/>
<path d="M394.166 391.833H381.676V392.083H394.166V391.833Z" fill="#D1E3FF"/>
<path d="M338.556 391.833H288.732V392.083H338.556V391.833Z" fill="#D1E3FF"/>
<path d="M129 394.389H119.101V394.639H129V394.389Z" fill="#D1E3FF"/>
<path d="M445.586 391.833H402.333V392.083H445.586V391.833Z" fill="#D1E3FF"/>
<path d="M237.014 337.8H43.915C40.768 337.8 38.207 335.239 38.207 332.092V60.66C38.207 57.513 40.768 54.952 43.915 54.952H237.014C240.16 54.952 242.721 57.513 242.721 60.66V332.092C242.721 335.239 240.16 337.8 237.014 337.8ZM43.915 55.203C40.905 55.203 38.457 57.651 38.457 60.661V332.093C38.457 335.103 40.905 337.551 43.915 337.551H237.014C240.023 337.551 242.471 335.103 242.471 332.093V60.66C242.471 57.651 240.023 55.202 237.014 55.202L43.915 55.203Z" fill="#D1E3FF"/>
<path d="M453.31 337.8H260.212C257.066 337.8 254.505 335.239 254.505 332.092V60.66C254.505 57.513 257.066 54.952 260.212 54.952H453.31C456.458 54.952 459.018 57.513 459.018 60.66V332.092C459.019 335.239 456.458 337.8 453.31 337.8ZM260.212 55.203C257.203 55.203 254.755 57.651 254.755 60.661V332.093C254.755 335.103 257.203 337.551 260.212 337.551H453.31C456.32 337.551 458.768 335.103 458.768 332.093V60.66C458.768 57.651 456.32 55.202 453.31 55.202L260.212 55.203Z" fill="#D1E3FF"/>
<path d="M76.6151 136.814C72.2551 127.393 75.7161 120.686 86.3731 120.686C93.0561 120.686 101.344 123.326 109.414 127.624C110.326 125.174 112.894 123.705 117.024 123.705C124.294 123.705 134.315 128.242 142.177 134.644C144.079 133.217 146.832 132.342 150.369 132.202C157.326 131.913 165.753 134.52 173.08 138.761C173.714 138.051 174.803 137.606 176.305 137.54C180.315 137.375 185.742 140.007 188.438 143.414C188.606 143.628 188.755 143.835 188.904 144.041H180.576H173.95H150.934H139.608H130.801H117.236H114.774H81.1251H74.4991C74.1571 141.071 74.8691 138.588 76.6151 136.814Z" fill="#F3F8FF"/>
<path d="M206.321 92.018C206.669 91.98 207.023 91.961 207.382 91.961C207.053 88.282 208.959 85.933 213.03 85.933C215.968 85.933 219.573 87.159 223.247 89.234C222.196 82.093 225.562 77.453 233.185 77.453C239.335 77.453 247.12 80.472 254.81 85.395C255.484 82.594 257.749 80.915 261.556 80.915C268.244 80.915 277.747 86.103 285.366 93.423C285.366 93.423 285.369 93.432 285.375 93.423C287.021 91.791 289.495 90.782 292.746 90.622C299.114 90.292 307.021 93.273 314.031 98.13C314.564 97.309 315.535 96.8 316.924 96.734C320.406 96.555 325.205 99.234 327.992 102.818H319.868H314.361H293.182H283.264H274.432H261.887H238.186H228.948H225.661H212.512H200.714C197.728 97.385 200.108 92.631 206.321 92.018Z" fill="#F3F8FF"/>
<path d="M376.982 76.406C374.184 70.361 376.405 66.057 383.244 66.057C387.533 66.057 392.85 67.751 398.029 70.509C398.614 68.937 400.262 67.994 402.912 67.994C407.577 67.994 414.007 70.905 419.052 75.013C420.273 74.097 422.039 73.536 424.309 73.446C428.773 73.261 434.181 74.934 438.882 77.654C439.289 77.199 439.988 76.913 440.951 76.871C443.524 76.765 447.006 78.454 448.736 80.64C448.844 80.778 448.939 80.91 449.035 81.042H443.691H439.439H424.67H417.402H411.751H403.046H401.466H379.874H373.506C371.122 78.9 373.76 76.514 376.982 76.406Z" fill="#F3F8FF"/>
<path d="M123.205 273.521H89.147V382.399H123.205V273.521Z" fill="#E3EEFF"/>
<path d="M112.075 382.399H167.929L167.929 235.628H112.075L112.075 382.399Z" fill="#F3F8FF"/>
<path d="M196.916 235.627H167.928V382.398H196.916V235.627Z" fill="#E3EEFF"/>
<path d="M119.59 235.627H167.928V221.039H119.59V235.627Z" fill="#F3F8FF"/>
<path d="M119.59 235.627H167.928V232.351H119.59V235.627Z" fill="#E3EEFF"/>
<path d="M189.4 221.04H167.928V235.628H189.4V221.04Z" fill="#E3EEFF"/>
<path d="M127.106 221.039H167.929V206.451H127.106V221.039Z" fill="#F3F8FF"/>
<path d="M127.106 221.039H167.929V217.764H127.106V221.039Z" fill="#E3EEFF"/>
<path d="M181.885 206.452H167.928V221.04H181.885V206.452Z" fill="#E3EEFF"/>
<path d="M155.851 186.065H153.14V206.452H155.851V186.065Z" fill="#E3EEFF"/>
<path d="M187.663 382.398H228.45L228.45 261.147H187.663V382.398Z" fill="#F3F8FF"/>
<path d="M249.618 261.148H228.45V382.399H249.618V261.148Z" fill="#E3EEFF"/>
<path d="M239.034 295.792L269.965 322.305V382.398H239.034V295.792Z" fill="#F3F8FF"/>
<path d="M286.018 322.305H269.965V382.399H286.018V322.305Z" fill="#E3EEFF"/>
<path d="M286.018 322.305H269.965L239.034 295.792H255.087L286.018 322.305Z" fill="#E3EEFF"/>
<path d="M430.975 382.398C430.975 382.398 431.708 375.182 439.681 371.467C436.413 376.698 437.125 382.398 437.125 382.398H430.975Z" fill="#E3EEFF"/>
<path d="M142.527 382.398C142.527 382.398 141.794 375.182 133.821 371.467C137.089 376.698 136.377 382.398 136.377 382.398H142.527Z" fill="#E3EEFF"/>
<path d="M71.1111 382.398C71.1111 382.398 70.6191 369.597 65.2681 365.883C67.4621 371.114 66.9831 382.398 66.9831 382.398H71.1111Z" fill="#E3EEFF"/>
<path d="M69.1011 382.398C69.1011 382.398 69.5931 375.049 74.9441 372.916C72.7501 375.919 73.2291 382.398 73.2291 382.398H69.1011Z" fill="#E3EEFF"/>
<path d="M147.107 382.398C147.107 382.398 146.573 370.28 136.868 365.883C141.206 372.099 140.957 382.398 140.957 382.398H147.107Z" fill="#E3EEFF"/>
<path d="M386.295 366.036H361.778C361.225 366.036 360.778 365.589 360.778 365.036V340.52C360.778 339.967 361.225 339.52 361.778 339.52H386.295C386.848 339.52 387.295 339.967 387.295 340.52V365.037C387.295 365.589 386.848 366.036 386.295 366.036ZM362.778 364.036H385.295V341.52H362.778V364.036Z" fill="#D1E3FF"/>
<path d="M386.295 341.52H361.778C361.225 341.52 360.778 341.073 360.778 340.52V316.003C360.778 315.45 361.225 315.003 361.778 315.003H386.295C386.848 315.003 387.295 315.45 387.295 316.003V340.52C387.295 341.072 386.848 341.52 386.295 341.52ZM362.778 339.52H385.295V317.003H362.778V339.52Z" fill="#D1E3FF"/>
<path d="M386.295 366.036C386.039 366.036 385.783 365.938 385.588 365.743L361.071 341.226C360.68 340.835 360.68 340.203 361.071 339.812C361.462 339.421 362.094 339.421 362.485 339.812L387.002 364.329C387.393 364.72 387.393 365.352 387.002 365.743C386.807 365.939 386.551 366.036 386.295 366.036Z" fill="#D1E3FF"/>
<path d="M386.295 341.52C386.039 341.52 385.783 341.422 385.588 341.227L361.071 316.71C360.68 316.319 360.68 315.687 361.071 315.296C361.462 314.905 362.094 314.905 362.485 315.296L387.002 339.813C387.393 340.204 387.393 340.836 387.002 341.227C386.807 341.422 386.551 341.52 386.295 341.52Z" fill="#D1E3FF"/>
<path d="M386.295 317.003H361.778C361.225 317.003 360.778 316.556 360.778 316.003V291.487C360.778 290.934 361.225 290.487 361.778 290.487H386.295C386.848 290.487 387.295 290.934 387.295 291.487V316.003C387.295 316.556 386.848 317.003 386.295 317.003ZM362.778 315.003H385.295V292.487H362.778V315.003Z" fill="#D1E3FF"/>
<path d="M386.295 292.487H361.778C361.225 292.487 360.778 292.04 360.778 291.487V266.97C360.778 266.417 361.225 265.97 361.778 265.97H386.295C386.848 265.97 387.295 266.417 387.295 266.97V291.487C387.295 292.04 386.848 292.487 386.295 292.487ZM362.778 290.487H385.295V267.97H362.778V290.487Z" fill="#D1E3FF"/>
<path d="M386.295 317.003C386.039 317.003 385.783 316.905 385.588 316.71L361.071 292.194C360.68 291.803 360.68 291.171 361.071 290.78C361.462 290.389 362.094 290.389 362.485 290.78L387.002 315.296C387.393 315.687 387.393 316.319 387.002 316.71C386.807 316.905 386.551 317.003 386.295 317.003Z" fill="#D1E3FF"/>
<path d="M386.295 292.487C386.039 292.487 385.783 292.389 385.588 292.194L361.071 267.677C360.68 267.286 360.68 266.654 361.071 266.263C361.462 265.872 362.094 265.872 362.485 266.263L387.002 290.78C387.393 291.171 387.393 291.803 387.002 292.194C386.807 292.39 386.551 292.487 386.295 292.487Z" fill="#D1E3FF"/>
<path d="M386.295 267.971H361.778C361.225 267.971 360.778 267.524 360.778 266.971V242.455C360.778 241.903 361.225 241.455 361.778 241.455H386.295C386.848 241.455 387.295 241.903 387.295 242.455V266.971C387.295 267.523 386.848 267.971 386.295 267.971ZM362.778 265.971H385.295V243.455H362.778V265.971Z" fill="#D1E3FF"/>
<path d="M386.295 243.455H361.778C361.225 243.455 360.778 243.007 360.778 242.455V217.938C360.778 217.386 361.225 216.938 361.778 216.938H386.295C386.848 216.938 387.295 217.386 387.295 217.938V242.455C387.295 243.007 386.848 243.455 386.295 243.455ZM362.778 241.455H385.295V218.938H362.778V241.455Z" fill="#D1E3FF"/>
<path d="M386.295 267.971C386.039 267.971 385.783 267.873 385.588 267.678L361.071 243.162C360.68 242.771 360.68 242.139 361.071 241.748C361.462 241.357 362.094 241.357 362.485 241.748L387.002 266.264C387.393 266.655 387.393 267.287 387.002 267.678C386.807 267.873 386.551 267.971 386.295 267.971Z" fill="#D1E3FF"/>
<path d="M361.778 161.552H337.262C336.709 161.552 336.262 161.104 336.262 160.552V136.036C336.262 135.484 336.709 135.036 337.262 135.036H361.778C362.331 135.036 362.778 135.484 362.778 136.036V160.552C362.778 161.105 362.331 161.552 361.778 161.552ZM338.263 159.552H360.779V137.036H338.263V159.552Z" fill="#D1E3FF"/>
<path d="M386.295 161.552H361.778C361.225 161.552 360.778 161.104 360.778 160.552C360.778 160 361.225 159.552 361.778 159.552H385.295V111.52C385.295 110.968 385.742 110.52 386.295 110.52C386.848 110.52 387.295 110.968 387.295 111.52V160.552C387.295 161.105 386.848 161.552 386.295 161.552Z" fill="#D1E3FF"/>
<path d="M361.777 161.552C361.627 161.552 361.474 161.518 361.331 161.447C360.837 161.2 360.637 160.599 360.884 160.105L385.401 111.073C385.649 110.579 386.248 110.379 386.743 110.626C387.237 110.873 387.437 111.474 387.19 111.968L362.673 161C362.497 161.35 362.145 161.552 361.777 161.552Z" fill="#D1E3FF"/>
<path d="M337.263 161.552H312.746C312.193 161.552 311.746 161.104 311.746 160.552V136.036C311.746 135.484 312.193 135.036 312.746 135.036H337.263C337.816 135.036 338.263 135.484 338.263 136.036V160.552C338.263 161.105 337.815 161.552 337.263 161.552ZM313.746 159.552H336.263V137.036H313.746V159.552Z" fill="#D1E3FF"/>
<path d="M337.263 161.552C337.007 161.552 336.751 161.454 336.556 161.259C336.165 160.868 336.165 160.236 336.556 159.845L361.072 135.329C361.463 134.938 362.095 134.938 362.486 135.329C362.877 135.72 362.877 136.352 362.486 136.743L337.97 161.259C337.774 161.455 337.519 161.552 337.263 161.552Z" fill="#D1E3FF"/>
<path d="M410.811 161.552H386.294C385.741 161.552 385.294 161.104 385.294 160.552V136.036C385.294 135.484 385.741 135.036 386.294 135.036H410.811C411.364 135.036 411.811 135.484 411.811 136.036V160.552C411.811 161.105 411.364 161.552 410.811 161.552ZM387.295 159.552H409.812V137.036H387.295V159.552Z" fill="#D1E3FF"/>
<path d="M386.295 161.552C386.039 161.552 385.783 161.454 385.588 161.259C385.197 160.868 385.197 160.236 385.588 159.845L410.105 135.329C410.496 134.938 411.128 134.938 411.519 135.329C411.91 135.72 411.91 136.352 411.519 136.743L387.002 161.259C386.807 161.455 386.551 161.552 386.295 161.552Z" fill="#D1E3FF"/>
<path d="M239.197 161.552C238.941 161.552 238.685 161.454 238.49 161.259C238.099 160.868 238.099 160.236 238.49 159.845L263.007 135.329C263.147 135.189 263.324 135.094 263.518 135.056L386.099 110.54C386.428 110.476 386.766 110.577 387.002 110.813L436.034 159.845C436.425 160.236 436.425 160.868 436.034 161.259C435.643 161.65 435.011 161.65 434.62 161.259L385.966 112.605L264.207 136.957L239.904 161.259C239.709 161.455 239.453 161.552 239.197 161.552Z" fill="#D1E3FF"/>
<path d="M312.746 161.552C312.49 161.552 312.234 161.454 312.039 161.259C311.648 160.868 311.648 160.236 312.039 159.845L336.556 135.329C336.947 134.938 337.579 134.938 337.97 135.329C338.361 135.72 338.361 136.352 337.97 136.743L313.453 161.259C313.258 161.455 313.002 161.552 312.746 161.552Z" fill="#D1E3FF"/>
<path d="M312.746 161.552H288.229C287.676 161.552 287.229 161.104 287.229 160.552V136.036C287.229 135.484 287.676 135.036 288.229 135.036H312.746C313.299 135.036 313.746 135.484 313.746 136.036V160.552C313.746 161.105 313.299 161.552 312.746 161.552ZM289.229 159.552H311.746V137.036H289.229V159.552Z" fill="#D1E3FF"/>
<path d="M288.229 161.552H263.713C263.16 161.552 262.713 161.104 262.713 160.552V136.036C262.713 135.484 263.16 135.036 263.713 135.036H288.229C288.782 135.036 289.229 135.484 289.229 136.036V160.552C289.229 161.105 288.782 161.552 288.229 161.552ZM264.714 159.552H287.23V137.036H264.714V159.552Z" fill="#D1E3FF"/>
<path d="M288.229 161.552C287.973 161.552 287.717 161.454 287.522 161.259C287.131 160.868 287.131 160.236 287.522 159.845L312.039 135.329C312.43 134.938 313.062 134.938 313.453 135.329C313.844 135.72 313.844 136.352 313.453 136.743L288.936 161.259C288.741 161.455 288.485 161.552 288.229 161.552Z" fill="#D1E3FF"/>
<path d="M263.714 161.552C263.458 161.552 263.202 161.454 263.007 161.259C262.616 160.868 262.616 160.236 263.007 159.845L287.523 135.329C287.914 134.938 288.546 134.938 288.937 135.329C289.328 135.72 289.328 136.352 288.937 136.743L264.421 161.259C264.226 161.455 263.97 161.552 263.714 161.552Z" fill="#D1E3FF"/>
<path d="M263.714 161.552H239.197C238.645 161.552 238.197 161.104 238.197 160.552C238.197 160 238.645 159.552 239.197 159.552H262.714V136.036C262.714 135.484 263.161 135.036 263.714 135.036C264.267 135.036 264.714 135.484 264.714 136.036V160.552C264.714 161.105 264.267 161.552 263.714 161.552Z" fill="#D1E3FF"/>
<path d="M386.295 243.455C386.039 243.455 385.783 243.357 385.588 243.162L361.071 218.645C360.68 218.254 360.68 217.622 361.071 217.231C361.462 216.84 362.094 216.84 362.485 217.231L387.002 241.748C387.393 242.139 387.393 242.771 387.002 243.162C386.807 243.357 386.551 243.455 386.295 243.455Z" fill="#D1E3FF"/>
<path d="M386.295 218.938H361.778C361.225 218.938 360.778 218.49 360.778 217.938V193.422C360.778 192.87 361.225 192.422 361.778 192.422H386.295C386.848 192.422 387.295 192.87 387.295 193.422V217.938C387.295 218.49 386.848 218.938 386.295 218.938ZM362.778 216.938H385.295V194.422H362.778V216.938Z" fill="#D1E3FF"/>
<path d="M386.295 194.422H361.778C361.225 194.422 360.778 193.974 360.778 193.422V168.906C360.778 168.354 361.225 167.906 361.778 167.906H386.295C386.848 167.906 387.295 168.354 387.295 168.906V193.422C387.295 193.974 386.848 194.422 386.295 194.422ZM362.778 192.422H385.295V169.906H362.778V192.422Z" fill="#D1E3FF"/>
<path d="M386.295 218.938C386.039 218.938 385.783 218.84 385.588 218.645L361.071 194.129C360.68 193.738 360.68 193.106 361.071 192.715C361.462 192.324 362.094 192.324 362.485 192.715L387.002 217.231C387.393 217.622 387.393 218.254 387.002 218.645C386.807 218.84 386.551 218.938 386.295 218.938Z" fill="#D1E3FF"/>
<path d="M386.295 194.422C386.039 194.422 385.783 194.324 385.588 194.129L361.071 169.613C360.68 169.222 360.68 168.59 361.071 168.199C361.462 167.808 362.094 167.808 362.485 168.199L387.002 192.715C387.393 193.106 387.393 193.738 387.002 194.129C386.807 194.324 386.551 194.422 386.295 194.422Z" fill="#D1E3FF"/>
<path d="M435.327 160.553H239.197L263.714 168.906H435.327V160.553Z" fill="#D1E3FF"/>
<path d="M435.327 169.906H263.714C263.605 169.906 263.495 169.888 263.392 169.853L238.875 161.499C238.412 161.341 238.131 160.872 238.211 160.389C238.291 159.907 238.708 159.552 239.197 159.552H435.327C435.88 159.552 436.327 160 436.327 160.552V168.906C436.327 169.458 435.88 169.906 435.327 169.906ZM263.88 167.906H434.327V161.552H245.233L263.88 167.906Z" fill="#D1E3FF"/>
<path d="M343.629 203.304H361.779V164.729H343.629V203.304Z" fill="#D1E3FF"/>
<path d="M343.628 164.729H335.184V203.304H343.628V164.729Z" fill="#F3F8FF"/>
<path d="M364.48 382.398H400.223V365.035H364.48V382.398Z" fill="#D1E3FF"/>
<path d="M364.479 365.036H347.85V382.399H364.479V365.036Z" fill="#F3F8FF"/>
<path d="M410.811 203.637C410.258 203.637 409.811 203.189 409.811 202.637V164.729C409.811 164.177 410.258 163.729 410.811 163.729C411.364 163.729 411.811 164.177 411.811 164.729V202.637C411.811 203.189 411.364 203.637 410.811 203.637Z" fill="#D1E3FF"/>
<path d="M410.811 208.237C408.992 208.237 407.511 206.757 407.511 204.937C407.511 203.118 408.991 201.637 410.811 201.637C412.63 201.637 414.111 203.117 414.111 204.937C414.111 206.756 412.631 208.237 410.811 208.237ZM410.811 203.637C410.094 203.637 409.511 204.22 409.511 204.937C409.511 205.654 410.094 206.237 410.811 206.237C411.528 206.237 412.111 205.654 412.111 204.937C412.111 204.22 411.528 203.637 410.811 203.637Z" fill="#D1E3FF"/>
<path d="M266.795 223.538C266.242 223.538 265.795 223.09 265.795 222.538V164.729C265.795 164.177 266.242 163.729 266.795 163.729C267.348 163.729 267.795 164.177 267.795 164.729V222.538C267.795 223.09 267.348 223.538 266.795 223.538Z" fill="#D1E3FF"/>
<path d="M276.182 229.526C275.69 229.526 275.281 229.171 275.198 228.703C274.465 227.535 267.953 223.687 266.76 223.536C265.637 223.687 259.125 227.535 258.393 228.703C258.31 229.171 257.901 229.526 257.409 229.526C256.856 229.526 256.409 229.078 256.409 228.526C256.409 226.279 265.484 221.537 266.796 221.537C268.108 221.537 277.183 226.279 277.183 228.526C277.182 229.079 276.734 229.526 276.182 229.526Z" fill="#D1E3FF"/>
<path d="M286.961 301.806L301.63 287.137L298.504 281.168C298.504 281.167 298.505 281.167 298.505 281.166C298.776 280.567 299.025 279.965 299.259 279.353V279.352L305.687 277.342V256.597L299.256 254.586C299.023 253.974 298.777 253.368 298.506 252.769L301.631 246.802L286.962 232.133L280.995 235.258C280.995 235.258 280.995 235.258 280.994 235.258C280.395 234.987 279.79 234.741 279.178 234.508L277.167 228.077H256.422L254.411 234.509C253.797 234.739 253.195 234.988 252.597 235.259C252.596 235.259 252.596 235.26 252.595 235.26L246.627 232.135L231.958 246.804L235.084 252.773C234.814 253.371 234.565 253.977 234.332 254.588L227.901 256.599V277.344L234.331 279.354C234.564 279.966 234.81 280.571 235.081 281.17C235.081 281.171 235.081 281.171 235.082 281.171L231.958 287.137L246.627 301.806L252.594 298.682C253.193 298.953 253.798 299.199 254.41 299.432L256.421 305.862H277.166L279.177 299.429C279.787 299.197 280.393 298.948 280.99 298.678L286.961 301.806ZM277.713 277.885C271.679 283.919 261.905 283.919 255.876 277.889C249.847 271.86 249.847 262.085 255.88 256.052C261.909 250.023 271.684 250.023 277.713 256.052C283.742 262.081 283.742 271.856 277.713 277.885Z" fill="#D1E3FF"/>
<path d="M250 427.561C357.082 427.561 443.889 422.492 443.889 416.238C443.889 409.985 357.082 404.915 250 404.915C142.918 404.915 56.111 409.985 56.111 416.238C56.111 422.492 142.918 427.561 250 427.561Z" fill="#F0F6FF"/>
<path d="M175.892 163.145H163.41C162.247 163.145 161.173 163.765 160.592 164.772L154.351 175.581C153.77 176.588 153.77 177.828 154.351 178.835L160.592 189.644C161.173 190.651 162.248 191.271 163.41 191.271H175.891C177.054 191.271 178.128 190.651 178.709 189.644L184.95 178.835C185.531 177.828 185.531 176.588 184.95 175.581L178.709 164.772C178.128 163.765 177.054 163.145 175.892 163.145Z" fill="#9FC6FF"/>
<path d="M95.9958 127.329L95.2888 126.622L101.331 120.58L102.038 121.287L95.9958 127.329ZM106.329 116.996L105.622 116.289L118.163 103.747L118.87 104.454L106.329 116.996Z" fill="#9FC6FF"/>
<path d="M254.505 199.838V154.578L240.474 150.192C240.473 150.191 240.473 150.189 240.473 150.188C239.967 148.846 239.422 147.532 238.839 146.229C238.839 146.228 238.838 146.227 238.838 146.226L245.654 133.21L213.651 101.207L200.627 108.027C199.324 107.443 198.01 106.889 196.667 106.383L192.282 92.356H147.023L142.638 106.382C142.637 106.382 142.637 106.382 142.636 106.382C141.294 106.888 139.98 107.442 138.677 108.026L125.654 101.207L93.6499 133.21L100.47 146.234C99.8769 147.536 99.3329 148.848 98.8279 150.188C98.8269 150.189 98.8269 150.191 98.8259 150.192L84.7979 154.578V199.838L98.8289 204.224C99.3329 205.563 99.8859 206.883 100.468 208.183L93.6479 221.206L125.651 253.209L138.672 246.391L138.673 246.392C139.977 246.976 141.29 247.53 142.633 248.036C142.634 248.037 142.635 248.037 142.636 248.037L147.02 262.061H192.279L196.664 248.036C198.006 247.53 199.32 246.976 200.623 246.392C200.624 246.391 200.625 246.391 200.626 246.391L213.648 253.21L245.651 221.207L238.83 208.181C239.412 206.882 239.964 205.563 240.468 204.226L254.505 199.838ZM203.333 177.202C203.333 195.818 188.253 210.898 169.651 210.898C151.048 210.898 135.969 195.819 135.969 177.202C135.969 158.599 151.048 143.52 169.651 143.52C188.254 143.52 203.333 158.6 203.333 177.202Z" fill="#9FC6FF"/>
<path d="M190.077 259.31H149.227C149.118 259.31 149.021 259.239 148.988 259.134L145.042 246.512C145.001 246.38 145.074 246.24 145.206 246.199C145.34 246.159 145.478 246.232 145.52 246.363L149.411 258.81H189.893L194.001 245.67C194.024 245.597 194.08 245.538 194.151 245.511L195.519 244.994C196.675 244.559 197.911 244.045 199.296 243.425L200.628 242.829C200.752 242.77 200.902 242.829 200.958 242.955C201.015 243.081 200.958 243.229 200.832 243.285L199.5 243.881C198.105 244.506 196.861 245.024 195.695 245.462L194.441 245.936L190.314 259.134C190.283 259.239 190.186 259.31 190.077 259.31ZM213.089 249.779C213.025 249.779 212.961 249.755 212.912 249.706C212.814 249.608 212.814 249.45 212.912 249.352L241.666 220.598L235.279 208.4C235.244 208.333 235.241 208.252 235.272 208.182L235.865 206.854C236.472 205.497 236.984 204.262 237.429 203.079L237.945 201.71C237.972 201.638 238.031 201.582 238.104 201.559L251.255 197.449V156.967L238.288 152.914C238.156 152.873 238.083 152.732 238.124 152.601C238.166 152.469 238.305 152.395 238.438 152.437L251.58 156.545C251.685 156.578 251.756 156.674 251.756 156.784V197.634C251.756 197.743 251.685 197.84 251.58 197.873L238.37 202.001L237.897 203.256C237.448 204.448 236.933 205.692 236.322 207.059L235.779 208.276L242.194 220.529C242.244 220.626 242.226 220.745 242.149 220.822L213.265 249.706C213.217 249.754 213.153 249.779 213.089 249.779ZM126.216 249.779C126.152 249.779 126.088 249.755 126.039 249.706L97.1538 220.822C97.0768 220.745 97.0588 220.626 97.1088 220.529L103.581 208.17C103.645 208.049 103.798 208.003 103.919 208.065C104.041 208.129 104.089 208.28 104.024 208.403L97.6368 220.599L126.392 249.353C126.49 249.451 126.49 249.609 126.392 249.707C126.344 249.754 126.28 249.779 126.216 249.779ZM143.191 245.287C143.161 245.287 143.13 245.282 143.101 245.27C142.085 244.877 141.006 244.423 139.8 243.882C139.674 243.826 139.617 243.678 139.674 243.552C139.73 243.426 139.878 243.368 140.004 243.426C141.202 243.963 142.274 244.413 143.281 244.804C143.41 244.854 143.474 244.998 143.424 245.127C143.386 245.226 143.291 245.287 143.191 245.287ZM169.651 214.148C149.286 214.148 132.718 197.574 132.718 177.203C132.718 177.065 132.83 176.953 132.968 176.953C133.106 176.953 133.218 177.065 133.218 177.203C133.218 197.299 149.562 213.648 169.651 213.648C189.739 213.648 206.083 197.299 206.083 177.203C206.083 157.114 189.74 140.77 169.651 140.77C169.513 140.77 169.401 140.658 169.401 140.52C169.401 140.382 169.513 140.27 169.651 140.27C190.015 140.27 206.583 156.838 206.583 177.203C206.583 197.574 190.016 214.148 169.651 214.148ZM101.638 203.417C101.537 203.417 101.442 203.355 101.404 203.255L100.93 202L87.7238 197.873C87.6198 197.84 87.5488 197.744 87.5488 197.634V156.784C87.5488 156.675 87.6198 156.578 87.7238 156.545L100.352 152.598C100.487 152.556 100.624 152.631 100.665 152.762C100.706 152.894 100.633 153.034 100.501 153.075L88.0478 156.967V197.449L101.195 201.558C101.268 201.581 101.327 201.637 101.354 201.708L101.871 203.077C101.92 203.206 101.854 203.35 101.725 203.399C101.697 203.411 101.667 203.417 101.638 203.417ZM101.653 151.452C101.624 151.452 101.594 151.447 101.565 151.436C101.436 151.387 101.371 151.243 101.419 151.114C101.903 149.832 102.411 148.609 102.973 147.374C103.031 147.248 103.179 147.194 103.304 147.25C103.43 147.307 103.485 147.456 103.428 147.581C102.87 148.805 102.366 150.019 101.886 151.29C101.85 151.39 101.754 151.452 101.653 151.452ZM235.838 145.738C235.799 145.738 235.759 145.729 235.722 145.71C235.6 145.646 235.552 145.495 235.617 145.372L241.667 133.819L236.841 128.993C236.743 128.895 236.743 128.737 236.841 128.639C236.939 128.541 237.097 128.541 237.195 128.639L242.151 133.595C242.228 133.672 242.246 133.791 242.196 133.888L236.061 145.603C236.015 145.689 235.928 145.738 235.838 145.738ZM97.3308 134.022C97.2668 134.022 97.2028 133.998 97.1538 133.949C97.0558 133.851 97.0558 133.693 97.1538 133.595L126.039 104.71C126.115 104.633 126.233 104.614 126.332 104.665L138.583 111.081L139.802 110.535C140.978 110.007 142.058 109.554 143.102 109.148C143.23 109.097 143.376 109.162 143.425 109.291C143.475 109.419 143.411 109.564 143.282 109.614C142.246 110.016 141.175 110.466 140.006 110.991L138.676 111.587C138.606 111.618 138.526 111.615 138.458 111.581L126.261 105.194L97.5058 133.949C97.4588 133.998 97.3948 134.022 97.3308 134.022ZM232.851 124.899C232.787 124.899 232.723 124.875 232.674 124.826L213.041 105.194L200.843 111.581C200.777 111.616 200.695 111.62 200.625 111.587L199.297 110.992C197.927 110.378 196.692 109.865 195.521 109.424L194.152 108.908C194.08 108.881 194.024 108.822 194.001 108.749L189.893 95.606H149.411L145.874 106.92C145.832 107.051 145.694 107.126 145.561 107.084C145.429 107.043 145.356 106.902 145.397 106.771L148.989 95.282C149.022 95.178 149.118 95.107 149.228 95.107H190.078C190.187 95.107 190.284 95.178 190.317 95.282L194.444 108.484L195.699 108.957C196.88 109.402 198.124 109.919 199.503 110.537L200.721 111.082L212.974 104.666C213.072 104.617 213.19 104.634 213.267 104.711L233.03 124.473C233.128 124.571 233.128 124.729 233.03 124.827C232.978 124.875 232.915 124.899 232.851 124.899Z" fill="white"/>
<path d="M313.344 185.388C316.472 189.37 319.396 193.384 322.255 197.518C325.088 201.66 327.837 205.87 330.415 210.272C331.063 211.364 331.683 212.5 332.313 213.617C333.395 215.593 333.744 217.477 333.876 219.106C334.106 222.384 333.636 225.127 333.041 227.782C331.778 233.052 329.863 237.759 327.421 242.392L322.274 240.408C323.242 235.759 324.124 230.922 324.476 226.424C324.626 224.198 324.636 221.962 324.283 220.316C324.103 219.501 323.848 218.931 323.673 218.764C323.009 217.772 322.368 216.779 321.675 215.791C318.968 211.825 316.099 207.882 313.206 203.953L304.515 192.175L313.344 185.388Z" fill="#FF8B7B"/>
<path d="M321.91 239.809L319.252 244.569L328.535 245.945C328.535 245.945 329.49 241.901 327.196 239.181L321.91 239.809Z" fill="#FF8B7B"/>
<path d="M317.85 250.897L325.576 251.675L328.534 245.944L319.252 244.569L317.85 250.897Z" fill="#FF8B7B"/>
<path d="M343.001 279.301L345.757 264.609C346.422 261.065 349.857 258.714 353.392 259.377L376.557 263.722C373.384 253.094 364.521 244.576 352.866 242.39C344.512 240.823 336.317 242.81 329.833 247.282L224.714 185.059C226 169.605 215.41 155.379 199.836 152.458C188.181 150.272 176.833 155 170.025 163.756L193.19 168.101C196.724 168.764 199.075 172.199 198.41 175.743L195.655 190.436C194.99 193.98 191.555 196.33 188.021 195.668L164.856 191.323C168.029 201.951 176.892 210.469 188.547 212.655C197.007 214.242 205.3 212.181 211.821 207.589L316.73 269.687C315.281 285.256 325.903 299.647 341.577 302.586C353.232 304.772 364.579 300.044 371.388 291.288L348.223 286.944C344.687 286.28 342.337 282.845 343.001 279.301Z" fill="#407BFF"/>
<path d="M310.017 258.383L224.782 207.931C223.234 207.015 222.722 205.017 223.638 203.469L227.115 197.595C228.031 196.047 230.029 195.535 231.577 196.451L316.812 246.903C318.36 247.819 318.872 249.817 317.956 251.365L314.479 257.239C313.563 258.787 311.565 259.299 310.017 258.383Z" fill="#5592FF"/>
<path d="M277.736 154.314C277.644 154.899 277.26 155.325 276.877 155.265C276.494 155.205 276.259 154.682 276.35 154.097C276.442 153.512 276.826 153.086 277.209 153.145C277.592 153.205 277.827 153.728 277.736 154.314Z" fill="#0F264C"/>
<path d="M277.313 155.334C277.313 155.334 275.453 158.503 273.732 159.903C274.616 161.032 276.446 160.866 276.446 160.866L277.313 155.334Z" fill="#FF5652"/>
<path d="M280.372 151.399C280.283 151.399 280.195 151.365 280.127 151.298C279.021 150.205 277.768 150.464 277.756 150.466C277.562 150.51 277.382 150.387 277.342 150.2C277.301 150.012 277.42 149.827 277.608 149.786C277.676 149.772 279.251 149.45 280.618 150.803C280.755 150.938 280.756 151.158 280.62 151.295C280.552 151.365 280.462 151.399 280.372 151.399Z" fill="#0F264C"/>
<path d="M297.271 160.764C296.217 166.138 295.166 175.986 298.926 179.572C298.926 179.572 297.457 185.024 287.47 185.024C276.489 185.024 282.222 179.573 282.222 179.573C288.215 178.142 288.06 173.695 287.016 169.52L297.271 160.764Z" fill="#FF8B7B"/>
<path d="M304.042 183.607C303.918 183.437 303.831 183.241 303.774 183.026C302.934 179.842 299.399 177.347 294.818 177.225C289.985 177.097 284.545 177.677 281.317 180.343C279.903 181.511 281.474 183.224 281.474 183.224L304.042 183.607Z" fill="#77B3FC"/>
<path d="M339.31 384.827C339.285 384.827 339.26 384.825 339.235 384.822C339.041 384.801 338.781 384.682 338.644 384.246C338.572 384.017 338.601 383.79 338.73 383.571C339.289 382.623 341.698 382.122 341.799 382.1C341.868 382.09 341.936 382.114 341.976 382.169C342.016 382.225 342.019 382.299 341.985 382.359C341.606 383.009 340.239 384.827 339.31 384.827ZM341.46 382.538C340.658 382.746 339.362 383.185 339.03 383.748C338.952 383.88 338.934 384.009 338.976 384.143C339.074 384.454 339.225 384.472 339.274 384.477C339.773 384.542 340.833 383.459 341.46 382.538Z" fill="#407BFF"/>
<path d="M340.64 382.583C339.735 382.583 338.714 382.405 338.402 381.966C338.315 381.843 338.206 381.587 338.457 381.251C338.62 381.033 338.847 380.906 339.132 380.871C340.231 380.745 341.877 382.079 341.946 382.137C341.995 382.178 342.018 382.242 342.007 382.304C341.995 382.367 341.949 382.418 341.889 382.438C341.597 382.53 341.136 382.583 340.64 382.583ZM339.297 381.209C339.255 381.209 339.213 381.212 339.173 381.217C338.984 381.239 338.84 381.32 338.735 381.46C338.598 381.642 338.659 381.728 338.685 381.765C338.97 382.166 340.495 382.334 341.433 382.185C340.957 381.839 339.993 381.209 339.297 381.209Z" fill="#407BFF"/>
<path d="M266.679 409.114C265.737 409.114 264.826 408.984 264.521 408.56C264.414 408.413 264.33 408.16 264.535 407.8C264.65 407.598 264.836 407.461 265.087 407.393C266.315 407.055 268.877 408.524 268.987 408.586C269.05 408.622 269.084 408.693 269.072 408.765C269.06 408.836 269.006 408.893 268.934 408.908C268.464 409.001 267.558 409.114 266.679 409.114ZM265.514 407.69C265.392 407.69 265.279 407.703 265.178 407.73C265.017 407.773 264.906 407.853 264.837 407.973C264.713 408.19 264.758 408.296 264.803 408.358C265.144 408.833 267.003 408.843 268.367 408.651C267.686 408.301 266.372 407.69 265.514 407.69Z" fill="#407BFF"/>
<path d="M268.898 408.911C268.874 408.911 268.849 408.906 268.827 408.896C267.94 408.497 266.184 406.909 266.318 406.078C266.349 405.884 266.488 405.64 266.965 405.593C267.319 405.558 267.645 405.657 267.931 405.892C268.866 406.659 269.063 408.637 269.071 408.721C269.077 408.782 269.049 408.843 269 408.879C268.97 408.9 268.935 408.911 268.898 408.911ZM267.105 405.934C267.071 405.934 267.036 405.936 267.001 405.939C266.688 405.971 266.668 406.094 266.662 406.134C266.581 406.633 267.775 407.881 268.68 408.425C268.586 407.847 268.323 406.663 267.71 406.16C267.525 406.008 267.326 405.934 267.105 405.934Z" fill="#407BFF"/>
<path d="M276.976 408.737H269.63L268.898 391.724H276.245L276.976 408.737Z" fill="#FF8B7B"/>
<path d="M348.412 377.049L342.455 381.348L328.394 370.515L334.351 366.216L348.412 377.049Z" fill="#FF8B7B"/>
<path d="M341.601 381.287L347.316 375.333C347.524 375.116 347.855 375.073 348.111 375.229L353.827 378.704C354.42 379.065 354.514 379.892 354.025 380.385C351.994 382.429 350.903 383.322 348.389 385.941C346.843 387.552 342.635 393.213 340.5 395.437C338.412 397.613 335.886 395.841 336.561 394.739C339.587 389.798 341.022 384.896 341.101 382.461C341.116 382.021 341.297 381.604 341.601 381.287Z" fill="#14365B"/>
<path d="M269.678 407.886H277.701C278.001 407.886 278.261 408.095 278.326 408.388L279.777 414.918C279.927 415.595 279.413 416.237 278.72 416.225C275.826 416.176 271.644 416.006 268.007 416.006C263.754 416.006 260.081 416.238 255.093 416.238C252.077 416.238 251.24 413.189 252.502 412.913C258.249 411.656 262.941 411.521 267.908 408.459C268.448 408.126 269.044 407.886 269.678 407.886Z" fill="#14365B"/>
<path d="M303.063 195.078C304.093 196.928 305.193 198.718 306.283 200.388C308.163 203.278 309.983 205.778 311.293 207.498C312.463 209.048 313.213 209.958 313.213 209.958L328.013 199.868C328.013 199.868 319.053 182.348 312.083 181.228C304.943 180.098 298.413 186.778 303.063 195.078Z" fill="#19437F"/>
<path d="M306.283 200.388C308.163 203.278 309.983 205.778 311.293 207.498C311.143 204.058 310.433 198.488 307.763 194.258C306.783 195.218 306.393 197.698 306.283 200.388Z" fill="#133A68"/>
<path d="M267.313 205.558C267.313 208.058 267.373 210.808 267.513 213.838C267.873 222.078 268.773 232.348 270.493 245.108H309.783C310.053 239.078 306.263 209.648 312.083 181.228C312.083 181.228 305.343 179.878 298.923 179.568C293.903 179.328 286.633 179.168 282.223 179.568C276.403 180.108 270.923 181.608 270.923 181.608C270.923 181.608 267.303 185.698 267.313 205.558Z" fill="#19437F"/>
<path d="M267.313 205.558C267.313 208.058 267.373 210.808 267.513 213.838C272.123 209.338 272.433 200.148 272.433 200.148L267.313 205.558Z" fill="#133A68"/>
<path d="M275.495 194.151C274.605 195.646 273.842 196.691 273 197.79C272.174 198.866 271.338 199.893 270.486 200.903C268.795 202.929 266.993 204.829 265.146 206.698C261.404 210.391 257.417 213.875 252.703 216.863C251.511 217.598 250.27 218.299 248.946 218.941L248.443 219.177L248.192 219.295C248.118 219.331 248.023 219.374 247.88 219.43C247.373 219.63 246.84 219.843 246.362 219.954L245.625 220.142L244.928 220.262C244.453 220.351 244.021 220.379 243.581 220.41C240.121 220.573 237.359 219.926 234.7 219.159C229.426 217.557 224.836 215.268 220.355 212.447L222.724 207.466C227.32 208.769 232.125 210.012 236.587 210.624C238.789 210.905 241.029 211.038 242.55 210.711C242.728 210.667 242.919 210.637 243.052 210.584L243.272 210.521L243.433 210.444C243.563 210.406 243.593 210.344 243.665 210.314L244.274 209.971C245.16 209.455 246.054 208.862 246.942 208.22C250.513 205.628 253.952 202.36 257.19 198.936C258.822 197.229 260.387 195.442 261.916 193.657C262.675 192.762 263.415 191.855 264.111 190.953C264.783 190.071 265.512 189.11 265.916 188.472L275.495 194.151Z" fill="#FF8B7B"/>
<path d="M223.805 208.801L218.918 202.986L215.605 211.47C215.605 211.47 219.813 213.438 223.09 212.314L223.805 208.801Z" fill="#FF8B7B"/>
<path d="M211.759 201.73L210.403 208.504L215.604 211.47L218.918 202.986L211.759 201.73Z" fill="#FF8B7B"/>
<path d="M281.395 190.173C280.52 197.142 264.639 211.922 264.639 211.922L250.341 200.585C250.341 200.585 255.996 192.006 262.861 186.053C273.216 177.073 282.445 181.809 281.395 190.173Z" fill="#19437F"/>
<path d="M268.959 237.417C283.229 237.417 286.494 221.278 287.239 214.352C286.694 210.12 284.303 196.562 274.966 181.362C274.637 180.827 274.938 180.128 275.556 180.013L278.69 179.435C279.051 179.368 279.422 179.533 279.616 179.844C288.21 193.588 291.015 205.25 291.934 211.25C292.757 211.25 293.627 211.25 294.486 211.25C297.113 205.548 302.881 192.563 302.406 180.392C302.385 179.85 302.834 179.412 303.374 179.464L306.734 179.786C307.176 179.829 307.528 180.185 307.546 180.628C308.037 192.364 301.408 208.631 298.856 213.795C299.733 232.945 310.375 236.25 310.375 236.25C310.375 236.25 310.875 242.333 309.745 250.499C287.198 254.164 275.959 251.928 269.533 249.268C270.108 244.451 269.209 241.083 268.959 237.417Z" fill="#0053CC"/>
<path d="M268.9 391.729L269.276 400.498H276.625L276.249 391.729H268.9Z" fill="#EA7063"/>
<path d="M334.356 366.218L328.396 370.519L335.647 376.101L341.607 371.8L334.356 366.218Z" fill="#EA7063"/>
<path d="M297.456 156.131C295.888 163.251 295.333 167.499 291.124 170.62C284.793 175.315 276.434 170.633 275.842 163.188C275.31 156.487 277.962 145.968 285.448 144.209C292.823 142.476 299.023 149.01 297.456 156.131Z" fill="#FF8B7B"/>
<path d="M303.815 145.083C310.065 145.252 307.488 148.542 304.363 150.349C304.363 150.349 307.966 152.076 306.109 156.206C303.289 162.479 297.891 169.366 292.376 168.989C285.521 168.52 283.569 161.055 283.817 153.699C280.202 150.286 279.594 148.408 279.027 144.313C277.902 136.178 283.042 131.708 303.815 145.083Z" fill="#14365B"/>
<path d="M295.758 131.383C304.677 133.66 310.061 142.736 307.784 151.655L275.486 143.409C277.764 134.49 286.84 129.106 295.758 131.383Z" fill="#9FC6FF"/>
<path d="M302.143 151.674C302.024 151.674 301.902 151.659 301.781 151.628C301.001 151.429 300.529 150.634 300.728 149.853C301.651 146.24 300.974 142.441 298.824 139.158C296.646 135.833 293.226 133.435 289.192 132.406C288.412 132.207 287.94 131.412 288.139 130.631C288.339 129.85 289.132 129.38 289.914 129.578C294.655 130.788 298.686 133.623 301.264 137.559C303.868 141.537 304.682 146.159 303.555 150.575C303.387 151.235 302.794 151.674 302.143 151.674Z" fill="#77B3FC"/>
<path d="M270.946 143.841L308.936 153.54C309.758 153.75 310.601 153.249 310.811 152.428C311.021 151.606 310.52 150.763 309.699 150.553L271.709 140.854C270.887 140.644 270.044 141.145 269.834 141.966C269.624 142.787 270.125 143.631 270.946 143.841Z" fill="#77B3FC"/>
<path d="M287.575 155.465C287.397 157.366 286.451 159.129 285.347 160.265C283.687 161.974 282.054 160.82 281.843 158.662C281.653 156.72 282.288 153.491 284.278 152.585C286.239 151.692 287.779 153.291 287.575 155.465Z" fill="#FF8B7B"/>
<path d="M284.427 245.108C284.427 245.108 283.579 297.391 290.15 317.889C300.557 350.356 331.975 376.657 331.975 376.657L343.21 368.549C343.21 368.549 317.059 346.332 312.26 318.983C307.949 294.414 309.781 265.176 309.781 245.108C300.629 245.108 284.427 245.108 284.427 245.108Z" fill="#0053CC"/>
<path d="M291.763 254.088C293.153 263.508 288.243 289.738 286.543 298.328C284.763 282.268 284.433 263.218 284.403 252.818C288.003 250.378 291.123 249.748 291.763 254.088Z" fill="#004DAA"/>
<path d="M327.191 374.287C327.144 374.321 331.805 377.037 331.805 377.037L344.081 368.178L339.989 365.051L327.191 374.287Z" fill="#77B3FC"/>
<path d="M270.488 245.108C270.488 245.108 259.423 292.009 258.644 314.412C257.77 339.537 266.539 398.8 266.539 398.8H278.984C278.984 398.8 280.516 339.076 281.07 316.191C281.674 291.242 296.318 245.108 296.318 245.108H270.488Z" fill="#0053CC"/>
<path d="M264.144 393.843C264.087 393.843 264.846 399.01 264.846 399.01H279.984L280.393 394.399L264.144 393.843Z" fill="#77B3FC"/>
</svg>
