<svg xmlns="http://www.w3.org/2000/svg" fill-rule="evenodd" clip-rule="evenodd" image-rendering="optimizeQuality" shape-rendering="geometricPrecision" text-rendering="geometricPrecision" viewBox="0 0 16666.66 16666.66" id="Financetarget"><rect width="16666.66" height="16666.66" fill="none"></rect><path fill="#66bef1" fill-rule="nonzero" d="M14045.1 8760.63c0,2021.52 -1638.8,3660.43 -3660.4,3660.43 -2021.63,0 -3660.46,-1638.91 -3660.46,-3660.43 0,-2021.67 1638.83,-3660.47 3660.46,-3660.47 2021.6,0 3660.4,1638.8 3660.4,3660.47z" class="colorf1666e svgShape"></path><path fill="#e5e6e6" fill-rule="nonzero" d="M13159.15 8760.63c0,1532.24 -1242.17,2774.41 -2774.44,2774.41 -1532.34,0 -2774.55,-1242.17 -2774.55,-2774.41 0,-1532.27 1242.21,-2774.55 2774.55,-2774.55 1532.28,0 2774.44,1242.28 2774.44,2774.55z" class="colore5e6e5 svgShape"></path><path fill="#66bef1" fill-rule="nonzero" d="M12366.47 8760.63c0,1094.42 -887.31,1981.73 -1981.77,1981.73 -1094.52,0 -1981.76,-887.31 -1981.76,-1981.73 0,-1094.56 887.24,-1981.73 1981.76,-1981.73 1094.46,0 1981.77,887.17 1981.77,1981.73z" class="colorf1666e svgShape"></path><path fill="#e5e6e6" fill-rule="nonzero" d="M11748.6 8760.63c0,753.24 -610.65,1363.92 -1363.89,1363.92 -753.28,0 -1363.96,-610.68 -1363.96,-1363.92 0,-753.24 610.68,-1363.96 1363.96,-1363.96 753.24,0 1363.89,610.72 1363.89,1363.96z" class="colore5e6e5 svgShape"></path><path fill="#66bef1" fill-rule="nonzero" d="M11014.19 8760.63c0 347.62-281.86 629.52-629.49 629.52-347.69 0-629.55-281.9-629.55-629.52 0-347.77 281.86-629.56 629.55-629.56 347.63 0 629.49 281.79 629.49 629.56zM15075.34 6341.3c-56.38-62.69-226.59-284.08-604.92 58.24-360.27 325.89-797.55 791.18-797.55 791.18 0 0 617.99-160.51 1076.83-320.33 481.66-167.81 371.73-456.3 325.63-529.09z" class="colorf1666e svgShape"></path><path fill="#2a3a43" fill-rule="nonzero" d="M14540.55 6488.37l-635.11 242.74c-191.46,73.04 -375.96,163.26 -551.22,269.54l-2969.52 1798.77 2988.32 -1228.49c337.13,-138.62 649.83,-330.18 926.42,-567.52l339.53 -291.25c-48.64,-66.23 -81.74,-142.52 -98.43,-223.8z" class="color2c2a43 svgShape"></path><path fill="#66bef1" fill-rule="nonzero" d="M13585 7190.71c0,0 85.5,-940.4 598.47,-1336.67 512.89,-396.41 404.07,761.59 404.07,761.59l-1002.54 575.08z" class="colorf1666e svgShape"></path><path fill="#66bef1" fill-rule="nonzero" d="M13585 7184.88c0,0 856.98,396.52 1456.84,150.76 599.83,-245.9 -457.3,-731 -457.3,-731l-999.54 580.24z" class="colorf1666e svgShape"></path><path fill="#a3d0ea" fill-rule="nonzero" d="M10392.52 12421.06c0.5,0 0.97,0 1.47,0 -0.5,0 -0.97,0 -1.47,0zm-3668.27 -3666.88c0,-0.75 0,-1.4 0,-2.15 0,0.75 0,1.4 0,2.15zm0 -6.45c0,-0.75 0,-1.65 0,-2.4 0,0.61 0,1.65 0,2.4zm0.07 -6.59c0,-0.86 0,-1.61 0,-2.4 0,0.79 0,1.54 0,2.4zm0 -6.7c0,-0.61 0.04,-1.36 0.04,-2.15 0,0.79 -0.04,1.54 -0.04,2.15zm0.04 -6.7c0.07,-0.75 0.07,-1.26 0.07,-1.86 0,0.5 0,1.25 -0.07,1.86zm0.22 -15.01c0,-0.25 0,-0.5 0,-0.65 0,0.14 0,0.5 0,0.65zm0.04 -6.7c0.04,-0.39 0.04,-0.65 0.04,-0.89 0,0.25 0,0.65 -0.04,0.89zm0.11 -6.7c0.04,-0.25 0.04,-0.65 0.04,-1.04 0,0.39 0,0.65 -0.04,1.04zm0.14 -6.84c0,-0.25 0,-0.5 0,-0.75 0,0.25 0,0.5 0,0.75z" class="coloreaa3ab svgShape"></path><path fill="#50b0e8" fill-rule="nonzero" d="M10384.71 12421.06c-2021.63,0 -3660.46,-1638.91 -3660.46,-3660.43 0,-2.15 0,-4.3 0,-6.45 0,-0.75 0,-1.4 0,-2.15 0,-1.4 0,-2.9 0,-4.3 0,-0.75 0,-1.79 0,-2.4 0,-1.4 0,-2.8 0.07,-4.19 0,-0.86 0,-1.61 0,-2.4 0,-1.5 0,-2.76 0,-4.3 0,-0.61 0.04,-1.36 0.04,-2.15 0,-1.5 0,-3.15 0,-4.55 0.07,-0.61 0.07,-1.36 0.07,-1.86 0.04,-4.44 0.07,-8.85 0.15,-13.15 0,-0.15 0,-0.5 0,-0.65 0,-2.15 0.04,-4.05 0.04,-6.06 0.04,-0.25 0.04,-0.65 0.04,-0.89 0,-1.9 0.07,-3.8 0.07,-5.8 0.04,-0.39 0.04,-0.65 0.04,-1.04 0.07,-2 0.07,-3.91 0.11,-5.8 0,-0.25 0,-0.5 0,-0.75 21.13,-1144.6 568.27,-2159.89 1409.13,-2816.75 362.74,101.73 748.66,143.42 1073.54,372.52 -943.76,442.8 -1597.36,1401.61 -1597.36,2513.11 0,1532.24 1242.21,2774.41 2774.55,2774.41 174.87,0 346.05,-16.19 512,-47.14 -5.52,95.78 -7.48,190.67 -4.62,284.44 5.84,191.81 13.43,398.67 30.55,609.07 -172.65,25.39 -349.02,39.15 -528.65,39.65 -0.5,0 -0.97,0 -1.47,0 -2.61,0 -5.23,0 -7.81,0l0 0z" class="colore85058 svgShape"></path><path fill="#97bfd6" fill-rule="nonzero" d="M10384.71 11535.04c-1532.34,0 -2774.55,-1242.17 -2774.55,-2774.41 0,-1111.5 653.59,-2070.31 1597.36,-2513.11 23.31,16.44 46.31,33.74 68.91,52.19 190.38,155.17 372.16,346.87 543.09,560.78 -819.15,243.39 -1416.57,1001.94 -1416.57,1900.14 0,1094.42 887.24,1981.73 1981.76,1981.73 215.7,0 423.39,-34.49 617.78,-98.18 -44.17,283.79 -89.76,567.09 -105.78,843.72 -165.95,30.95 -337.13,47.14 -512,47.14z" class="colord6979f svgShape"></path><path fill="#50b0e8" fill-rule="nonzero" d="M10384.71 10742.36c-1094.52,0 -1981.76,-887.31 -1981.76,-1981.73 0,-898.2 597.43,-1656.74 1416.57,-1900.14 136.54,171 266.21,355.87 387.78,547.68 -669.46,86.93 -1186.55,659.22 -1186.55,1352.46 0,753.24 610.68,1363.92 1363.96,1363.92 259.15,0 501.4,-72.25 707.72,-197.87 -16.3,236.8 -52.55,477.26 -89.94,717.5 -194.39,63.69 -402.07,98.18 -617.78,98.18z" class="colore85058 svgShape"></path><path fill="#97bfd6" fill-rule="nonzero" d="M10384.71 10124.55c-753.28,0 -1363.96,-610.68 -1363.96,-1363.92 0,-693.24 517.09,-1265.53 1186.55,-1352.46 160.83,253.6 307.58,518.95 437.57,779.03 -79.3,-36.04 -167.42,-56.13 -260.16,-56.13 -347.69,0 -629.55,281.79 -629.55,629.56 0,347.62 281.86,629.52 629.55,629.52 282.47,0 521.49,-186.11 601.23,-442.4 112.47,311.48 129.74,641.55 106.49,978.94 -206.32,125.62 -448.56,197.87 -707.72,197.87z" class="colord6979f svgShape"></path><path fill="#50b0e8" fill-rule="nonzero" d="M10384.71 9390.15c-347.69,0 -629.55,-281.9 -629.55,-629.52 0,-347.77 281.86,-629.56 629.55,-629.56 92.74,0 180.85,20.09 260.16,56.13 59.6,119.28 115.73,237.55 168.03,352.78l-428.18 259.44 459.78 -189.06c40.83,91.88 79.13,181.6 114.87,268.54 9.38,22.75 18.23,45.74 26.58,68.85 -79.74,256.29 -318.76,442.4 -601.23,442.4z" class="colore85058 svgShape"></path><path fill="#273238" fill-rule="nonzero" d="M10384.71 8799.42l428.18 -259.44c10.74,23.64 21.24,47.14 31.59,70.38l-459.78 189.06z" class="color282738 svgShape"></path><path fill="#00a1ff" fill-rule="nonzero" d="M5550.73 4517.24c0,0 -1119.1,279.78 -1958.48,901.6 -839.31,621.72 -1709.72,2549.11 -1880.72,3901.32 -170.96,1352.31 -512.93,2409.2 0,3100.9 512.89,691.7 2176.05,831.61 3606.06,971.49 1429.97,139.87 3403.14,-202.06 3799.87,-699.55 396.77,-497.35 365.75,-4262.19 -380.33,-5682.75 -746.11,-1420.44 -2098.36,-2524.07 -3186.4,-2493.01z" class="color3fc0c6 svgShape"></path><path fill="#3380ad" fill-rule="nonzero" d="M8743.47 10639.88c-719.46,-6.7 -1287.45,147.97 -1700.19,771.8 -273.41,413.21 -637.58,1057.27 -429.58,1574.75 57.2,142.38 131.92,271.8 207.93,399.78 1048.46,-94.49 2028.94,-358.59 2295.83,-693.21 165.23,-207.11 255.89,-981.34 251.95,-1916.4 -197.94,-62.93 -396.3,-134.72 -625.94,-136.72z" class="color33a5ad svgShape"></path><path fill="#3380ad" fill-rule="nonzero" d="M7456.67 12617.56c-287.48,-95.53 -583.21,-199.91 -820.37,-395.37 -509.1,-419.55 -819.54,-543.99 -1453.18,-537.83 -579.59,5.84 -1139.66,4.19 -1637.29,-324.74 -443.59,-293.14 -691.42,-947.85 -584.35,-1462.14 77.94,-374.27 190.2,-672.61 421.2,-979.44 325.99,-432.77 388.53,-743.89 272.48,-1285.09 -138.69,-646.61 -159.43,-1199.29 30.41,-1840.21 98.07,-331.07 329.07,-571.53 589.15,-788.13 -230.14,116.13 -465.57,253.49 -682.46,414.21 -839.31,621.72 -1709.72,2549.11 -1880.72,3901.32 -170.96,1352.31 -512.93,2409.2 0,3100.9 512.89,691.7 2176.05,831.61 3606.06,971.49 1429.97,139.87 3403.14,-202.06 3799.87,-699.55 77.01,-96.43 137.69,-317.04 180.35,-618.67 -496.53,490.8 -1140.23,776.13 -1841.14,543.23z" class="color33a5ad svgShape"></path><path fill="#00a1ff" fill-rule="nonzero" d="M5395.28 4797.03c0,0 -1200.66,-291.39 -1363.92,-1200.69 -163.16,-909.31 314.78,-1224.09 681.96,-1014.18 367.26,209.9 425.5,96.68 681.96,-62.43 256.46,-159.07 629.49,97.43 816.03,365.57 186.55,268.04 221.47,-46.64 664.48,-81.63 442.97,-35 594.56,373.02 361.38,909.3 -233.15,536.14 -454.69,1107.42 -1841.89,1084.07z" class="color3fc0c6 svgShape"></path><path fill="#3380ad" fill-rule="nonzero" d="M6696.66 4285.74c-311.02,80.13 -126.8,-321.83 -177.45,-461.46 -81.38,3.91 -111.65,138.87 -138.76,197.61 -58.5,126.51 -190.52,211.41 -330.61,209.79 -193.81,-2.4 -220.79,-213.95 -303.5,-343.97 -34.85,-54.59 -51.04,-52.69 -72.71,12.89 -23.85,72.28 -0.93,156.67 -68.23,213.16 -124.19,104.13 -330.68,-14 -427.04,-97.78 -105.2,-91.37 -148.97,-241.6 -261.33,-330.33 -20.52,21.24 -28.98,49.65 -35,78.09 -27.76,130.92 -19.7,379.86 -232.79,334.12 -180.71,-38.69 -301.96,-333.98 -360.13,-484.35 -66.91,-173.01 -129.99,-379.47 -129.52,-566.37 0.22,-81.38 5.16,-159.72 16.19,-239.06 6.37,-45.63 21.88,-145.21 44.45,-183.5l-1.43 -0.61c-173,152.02 -277.17,472.31 -187.44,972.35 138.8,773.44 1028.19,1099.86 1290.92,1180.1 45.85,14 93.88,21.2 141.81,21.35 1092.81,2.8 1432.59,-377.96 1646.75,-807.08l-1.93 2.04c0,0 -300.92,264.2 -412.24,293z" class="color33a5ad svgShape"></path><path fill="#72cbff" fill-rule="nonzero" d="M5900.94 7498.26c588.58 58.13 1120.46 322.62 1110.14 912.1l-982.73-17.59c-1.29-222.91-228.92-274.84-372.45-277.24-90.23-1.65-382.3-6.8-385.49 173.65-7.16 403.57 1811.45 16.3 1791.17 1158.11-12.11 685.11-553.01 930.65-1212.44 966.54l29.59 728.6-600.08-10.5 50.04-732.54c-609.54-74.68-1172.9-371.37-1161.9-987.5l982.59 17.44-.46 21.1c.5 271.04 302.24 329.54 456.3 332.19 148.94 2.65 441.18-2.51 444.48-199.26 7.52-419.51-1810.37-69.13-1790.92-1173.9 11.5-637.37 509.81-873.16 1121.5-915.25l-24.07-733.65 600.11 10.6-55.37 727.09zM10892.41 12421.06c0 980.19-794.61 1774.88-1774.94 1774.88-980.26 0-1774.91-794.68-1774.91-1774.88 0-980.3 794.65-1774.98 1774.91-1774.98 980.33 0 1774.94 794.68 1774.94 1774.98z" class="colorffce72 svgShape"></path><path fill="#41b6fa" fill-rule="nonzero" d="M10566.17 12421.06c0,800.02 -648.61,1448.63 -1448.7,1448.63 -800.05,0 -1448.6,-648.61 -1448.6,-1448.63 0,-800.13 648.54,-1448.74 1448.6,-1448.74 800.09,0 1448.7,648.61 1448.7,1448.74z" class="colorfaaa41 svgShape"></path><path fill="#72cbff" fill-rule="nonzero" d="M8944.96 11675.27c290.74-89.94 595.78-70.63 708.54 210.91l-469.52 187.91c-45.13-105.52-163.37-84.68-231.93-57.13-43.16 17.19-182.64 73.07-148.19 159.22 77.19 192.85 862.24-353.79 1080.63 191.7 130.99 327.28-76.51 551.68-382.05 700.44l159.47 339.53-286.66 114.83-122.5-357.33c-303.93 86.18-630.34 57.99-748.12-236.44l469.41-187.87 4.05 10.21c54.3 128.41 209.08 95.93 282.65 66.34 71.17-28.41 208.72-89.19 171.04-183.22-80.17-200.41-872.31 328.68-1083.6-199.15-121.79-304.54 67.44-515.8 349.13-657.82l-157.89-343.22 286.7-114.73 118.85 355.83zM4520.83 4364.87l-108.35 572.28c0 0 306.79 295.08 1142.2 295.08 835.41 0 1286.12-295.33 1286.12-295.33l-54.34-516.83c0 0-1142.85 289.63-2265.63-55.2z" class="colorffce72 svgShape"></path></svg>