<svg width="500" height="500" viewBox="0 0 500 500" fill="none" xmlns="http://www.w3.org/2000/svg">
<path d="M500 382.396H0V382.646H500V382.396Z" fill="#D1E3FF"/>
<path d="M109.419 394.389H51.646V394.639H109.419V394.389Z" fill="#D1E3FF"/>
<path d="M235.667 388.957H209.344V389.207H235.667V388.957Z" fill="#D1E3FF"/>
<path d="M296.556 388.832H245.278V389.082H296.556V388.832Z" fill="#D1E3FF"/>
<path d="M394.166 391.832H381.676V392.082H394.166V391.832Z" fill="#D1E3FF"/>
<path d="M338.556 391.832H288.732V392.082H338.556V391.832Z" fill="#D1E3FF"/>
<path d="M129 394.389H119.101V394.639H129V394.389Z" fill="#D1E3FF"/>
<path d="M445.586 391.832H402.333V392.082H445.586V391.832Z" fill="#D1E3FF"/>
<path d="M237.014 337.799H43.915C40.768 337.799 38.207 335.238 38.207 332.091V60.6592C38.207 57.5122 40.768 54.9512 43.915 54.9512H237.014C240.16 54.9512 242.721 57.5122 242.721 60.6592V332.091C242.721 335.238 240.16 337.799 237.014 337.799ZM43.915 55.2022C40.905 55.2022 38.457 57.6502 38.457 60.6602V332.092C38.457 335.102 40.905 337.55 43.915 337.55H237.014C240.023 337.55 242.471 335.102 242.471 332.092V60.6592C242.471 57.6502 240.023 55.2012 237.014 55.2012L43.915 55.2022Z" fill="#D1E3FF"/>
<path d="M453.31 337.799H260.212C257.066 337.799 254.505 335.238 254.505 332.091V60.6592C254.505 57.5122 257.066 54.9512 260.212 54.9512H453.31C456.458 54.9512 459.018 57.5122 459.018 60.6592V332.091C459.019 335.238 456.458 337.799 453.31 337.799ZM260.212 55.2022C257.203 55.2022 254.755 57.6502 254.755 60.6602V332.092C254.755 335.102 257.203 337.55 260.212 337.55H453.31C456.32 337.55 458.768 335.102 458.768 332.092V60.6592C458.768 57.6502 456.32 55.2012 453.31 55.2012L260.212 55.2022Z" fill="#D1E3FF"/>
<path d="M76.6148 136.814C72.2548 127.393 75.7158 120.686 86.3728 120.686C93.0558 120.686 101.344 123.326 109.414 127.624C110.326 125.174 112.894 123.705 117.024 123.705C124.294 123.705 134.315 128.242 142.177 134.644C144.079 133.217 146.832 132.342 150.369 132.202C157.326 131.913 165.753 134.52 173.08 138.761C173.714 138.051 174.803 137.606 176.305 137.54C180.315 137.375 185.742 140.007 188.438 143.414C188.606 143.628 188.755 143.835 188.904 144.041H180.576H173.95H150.934H139.608H130.801H117.236H114.774H81.1248H74.4988C74.1568 141.071 74.8688 138.588 76.6148 136.814Z" fill="#F3F8FF"/>
<path d="M206.321 92.0181C206.669 91.9801 207.023 91.9611 207.382 91.9611C207.053 88.2821 208.959 85.9331 213.03 85.9331C215.968 85.9331 219.573 87.1591 223.247 89.2341C222.196 82.0931 225.562 77.4531 233.185 77.4531C239.335 77.4531 247.12 80.4721 254.81 85.3951C255.484 82.5941 257.749 80.9151 261.556 80.9151C268.244 80.9151 277.747 86.1031 285.366 93.4231C285.366 93.4231 285.369 93.4321 285.375 93.4231C287.021 91.7911 289.495 90.7821 292.746 90.6221C299.114 90.2921 307.021 93.2731 314.031 98.1301C314.564 97.3091 315.535 96.8001 316.924 96.7341C320.406 96.5551 325.205 99.2341 327.992 102.818H319.868H314.361H293.182H283.264H274.432H261.887H238.186H228.948H225.661H212.512H200.714C197.728 97.3851 200.108 92.6311 206.321 92.0181Z" fill="#F3F8FF"/>
<path d="M376.982 76.4056C374.184 70.3606 376.405 66.0566 383.244 66.0566C387.533 66.0566 392.85 67.7506 398.029 70.5086C398.614 68.9366 400.262 67.9936 402.912 67.9936C407.577 67.9936 414.007 70.9046 419.052 75.0126C420.273 74.0966 422.039 73.5356 424.309 73.4456C428.773 73.2606 434.181 74.9336 438.882 77.6536C439.289 77.1986 439.988 76.9126 440.951 76.8706C443.524 76.7646 447.006 78.4536 448.736 80.6396C448.844 80.7776 448.939 80.9096 449.035 81.0416H443.691H439.439H424.67H417.402H411.751H403.046H401.466H379.874H373.506C371.122 78.8996 373.76 76.5136 376.982 76.4056Z" fill="#F3F8FF"/>
<path d="M123.205 273.52H89.147V382.398H123.205V273.52Z" fill="#E3EEFF"/>
<path d="M112.075 382.398H167.929L167.929 235.627H112.075L112.075 382.398Z" fill="#F3F8FF"/>
<path d="M196.916 235.627H167.928V382.398H196.916V235.627Z" fill="#E3EEFF"/>
<path d="M119.591 235.627H167.929V221.039H119.591V235.627Z" fill="#F3F8FF"/>
<path d="M119.591 235.627H167.929V232.351H119.591V235.627Z" fill="#E3EEFF"/>
<path d="M189.4 221.039H167.928V235.627H189.4V221.039Z" fill="#E3EEFF"/>
<path d="M127.106 221.039H167.929V206.451H127.106V221.039Z" fill="#F3F8FF"/>
<path d="M127.106 221.039H167.929V217.763H127.106V221.039Z" fill="#E3EEFF"/>
<path d="M181.885 206.451H167.928V221.039H181.885V206.451Z" fill="#E3EEFF"/>
<path d="M155.851 186.064H153.14V206.451H155.851V186.064Z" fill="#E3EEFF"/>
<path d="M187.663 382.398H228.45L228.45 261.147H187.663V382.398Z" fill="#F3F8FF"/>
<path d="M249.618 261.148H228.45V382.399H249.618V261.148Z" fill="#E3EEFF"/>
<path d="M239.034 295.791L269.965 322.304V382.397H239.034V295.791Z" fill="#F3F8FF"/>
<path d="M286.018 322.305H269.965V382.399H286.018V322.305Z" fill="#E3EEFF"/>
<path d="M286.018 322.304H269.965L239.034 295.791H255.087L286.018 322.304Z" fill="#E3EEFF"/>
<path d="M430.975 382.398C430.975 382.398 431.708 375.182 439.681 371.467C436.413 376.698 437.125 382.398 437.125 382.398H430.975Z" fill="#E3EEFF"/>
<path d="M142.527 382.398C142.527 382.398 141.794 375.182 133.821 371.467C137.089 376.698 136.377 382.398 136.377 382.398H142.527Z" fill="#E3EEFF"/>
<path d="M71.1111 382.398C71.1111 382.398 70.6191 369.597 65.2681 365.883C67.4621 371.114 66.9831 382.398 66.9831 382.398H71.1111Z" fill="#E3EEFF"/>
<path d="M69.1011 382.398C69.1011 382.398 69.5931 375.049 74.9441 372.916C72.7501 375.919 73.2291 382.398 73.2291 382.398H69.1011Z" fill="#E3EEFF"/>
<path d="M147.107 382.398C147.107 382.398 146.573 370.28 136.868 365.883C141.206 372.099 140.957 382.398 140.957 382.398H147.107Z" fill="#E3EEFF"/>
<path d="M386.295 366.036H361.778C361.225 366.036 360.778 365.589 360.778 365.036V340.52C360.778 339.967 361.225 339.52 361.778 339.52H386.295C386.848 339.52 387.295 339.967 387.295 340.52V365.037C387.295 365.589 386.848 366.036 386.295 366.036ZM362.778 364.036H385.295V341.52H362.778V364.036Z" fill="#D1E3FF"/>
<path d="M386.295 341.519H361.778C361.225 341.519 360.778 341.072 360.778 340.519V316.002C360.778 315.449 361.225 315.002 361.778 315.002H386.295C386.848 315.002 387.295 315.449 387.295 316.002V340.519C387.295 341.071 386.848 341.519 386.295 341.519ZM362.778 339.519H385.295V317.002H362.778V339.519Z" fill="#D1E3FF"/>
<path d="M386.295 366.035C386.039 366.035 385.783 365.937 385.588 365.742L361.071 341.225C360.68 340.834 360.68 340.202 361.071 339.811C361.462 339.42 362.094 339.42 362.485 339.811L387.002 364.328C387.393 364.719 387.393 365.351 387.002 365.742C386.807 365.938 386.551 366.035 386.295 366.035Z" fill="#D1E3FF"/>
<path d="M386.295 341.519C386.039 341.519 385.783 341.421 385.588 341.226L361.071 316.709C360.68 316.318 360.68 315.686 361.071 315.295C361.462 314.904 362.094 314.904 362.485 315.295L387.002 339.812C387.393 340.203 387.393 340.835 387.002 341.226C386.807 341.421 386.551 341.519 386.295 341.519Z" fill="#D1E3FF"/>
<path d="M386.295 317.002H361.778C361.225 317.002 360.778 316.555 360.778 316.002V291.486C360.778 290.933 361.225 290.486 361.778 290.486H386.295C386.848 290.486 387.295 290.933 387.295 291.486V316.002C387.295 316.555 386.848 317.002 386.295 317.002ZM362.778 315.002H385.295V292.486H362.778V315.002Z" fill="#D1E3FF"/>
<path d="M386.295 292.486H361.778C361.225 292.486 360.778 292.039 360.778 291.486V266.969C360.778 266.416 361.225 265.969 361.778 265.969H386.295C386.848 265.969 387.295 266.416 387.295 266.969V291.486C387.295 292.039 386.848 292.486 386.295 292.486ZM362.778 290.486H385.295V267.969H362.778V290.486Z" fill="#D1E3FF"/>
<path d="M386.295 317.003C386.039 317.003 385.783 316.905 385.588 316.71L361.071 292.194C360.68 291.803 360.68 291.171 361.071 290.78C361.462 290.389 362.094 290.389 362.485 290.78L387.002 315.296C387.393 315.687 387.393 316.319 387.002 316.71C386.807 316.905 386.551 317.003 386.295 317.003Z" fill="#D1E3FF"/>
<path d="M386.295 292.486C386.039 292.486 385.783 292.388 385.588 292.193L361.071 267.676C360.68 267.285 360.68 266.653 361.071 266.262C361.462 265.871 362.094 265.871 362.485 266.262L387.002 290.779C387.393 291.17 387.393 291.802 387.002 292.193C386.807 292.389 386.551 292.486 386.295 292.486Z" fill="#D1E3FF"/>
<path d="M386.295 267.971H361.778C361.225 267.971 360.778 267.524 360.778 266.971V242.455C360.778 241.903 361.225 241.455 361.778 241.455H386.295C386.848 241.455 387.295 241.903 387.295 242.455V266.971C387.295 267.523 386.848 267.971 386.295 267.971ZM362.778 265.971H385.295V243.455H362.778V265.971Z" fill="#D1E3FF"/>
<path d="M386.295 243.454H361.778C361.225 243.454 360.778 243.006 360.778 242.454V217.938C360.778 217.386 361.225 216.938 361.778 216.938H386.295C386.848 216.938 387.295 217.386 387.295 217.938V242.454C387.295 243.006 386.848 243.454 386.295 243.454ZM362.778 241.454H385.295V218.938H362.778V241.454Z" fill="#D1E3FF"/>
<path d="M386.295 267.971C386.039 267.971 385.783 267.873 385.588 267.678L361.071 243.162C360.68 242.771 360.68 242.139 361.071 241.748C361.462 241.357 362.094 241.357 362.485 241.748L387.002 266.264C387.393 266.655 387.393 267.287 387.002 267.678C386.807 267.873 386.551 267.971 386.295 267.971Z" fill="#D1E3FF"/>
<path d="M361.778 161.551H337.262C336.709 161.551 336.262 161.103 336.262 160.551V136.035C336.262 135.483 336.709 135.035 337.262 135.035H361.778C362.331 135.035 362.778 135.483 362.778 136.035V160.551C362.778 161.104 362.331 161.551 361.778 161.551ZM338.263 159.551H360.779V137.035H338.263V159.551Z" fill="#D1E3FF"/>
<path d="M386.295 161.552H361.778C361.225 161.552 360.778 161.104 360.778 160.552C360.778 160 361.225 159.552 361.778 159.552H385.295V111.52C385.295 110.968 385.742 110.52 386.295 110.52C386.848 110.52 387.295 110.968 387.295 111.52V160.552C387.295 161.105 386.848 161.552 386.295 161.552Z" fill="#D1E3FF"/>
<path d="M361.777 161.551C361.627 161.551 361.474 161.517 361.331 161.446C360.837 161.199 360.637 160.598 360.884 160.104L385.401 111.072C385.649 110.578 386.248 110.378 386.743 110.625C387.237 110.872 387.437 111.473 387.19 111.967L362.673 160.999C362.497 161.349 362.145 161.551 361.777 161.551Z" fill="#D1E3FF"/>
<path d="M337.263 161.551H312.746C312.193 161.551 311.746 161.103 311.746 160.551V136.035C311.746 135.483 312.193 135.035 312.746 135.035H337.263C337.816 135.035 338.263 135.483 338.263 136.035V160.551C338.263 161.104 337.815 161.551 337.263 161.551ZM313.746 159.551H336.263V137.035H313.746V159.551Z" fill="#D1E3FF"/>
<path d="M337.263 161.551C337.007 161.551 336.751 161.453 336.556 161.258C336.165 160.867 336.165 160.235 336.556 159.844L361.072 135.328C361.463 134.937 362.095 134.937 362.486 135.328C362.877 135.719 362.877 136.351 362.486 136.742L337.97 161.258C337.774 161.454 337.519 161.551 337.263 161.551Z" fill="#D1E3FF"/>
<path d="M410.811 161.551H386.294C385.741 161.551 385.294 161.103 385.294 160.551V136.035C385.294 135.483 385.741 135.035 386.294 135.035H410.811C411.364 135.035 411.811 135.483 411.811 136.035V160.551C411.811 161.104 411.364 161.551 410.811 161.551ZM387.295 159.551H409.812V137.035H387.295V159.551Z" fill="#D1E3FF"/>
<path d="M386.295 161.551C386.039 161.551 385.783 161.453 385.588 161.258C385.197 160.867 385.197 160.235 385.588 159.844L410.105 135.328C410.496 134.937 411.128 134.937 411.519 135.328C411.91 135.719 411.91 136.351 411.519 136.742L387.002 161.258C386.807 161.454 386.551 161.551 386.295 161.551Z" fill="#D1E3FF"/>
<path d="M239.197 161.552C238.941 161.552 238.685 161.454 238.49 161.259C238.099 160.868 238.099 160.236 238.49 159.845L263.007 135.329C263.147 135.189 263.324 135.094 263.518 135.056L386.099 110.54C386.428 110.476 386.766 110.577 387.002 110.813L436.034 159.845C436.425 160.236 436.425 160.868 436.034 161.259C435.643 161.65 435.011 161.65 434.62 161.259L385.966 112.605L264.207 136.957L239.904 161.259C239.709 161.455 239.453 161.552 239.197 161.552Z" fill="#D1E3FF"/>
<path d="M312.746 161.551C312.49 161.551 312.234 161.453 312.039 161.258C311.648 160.867 311.648 160.235 312.039 159.844L336.556 135.328C336.947 134.937 337.579 134.937 337.97 135.328C338.361 135.719 338.361 136.351 337.97 136.742L313.453 161.258C313.258 161.454 313.002 161.551 312.746 161.551Z" fill="#D1E3FF"/>
<path d="M312.746 161.551H288.229C287.676 161.551 287.229 161.103 287.229 160.551V136.035C287.229 135.483 287.676 135.035 288.229 135.035H312.746C313.299 135.035 313.746 135.483 313.746 136.035V160.551C313.746 161.104 313.299 161.551 312.746 161.551ZM289.229 159.551H311.746V137.035H289.229V159.551Z" fill="#D1E3FF"/>
<path d="M288.229 161.551H263.713C263.16 161.551 262.713 161.103 262.713 160.551V136.035C262.713 135.483 263.16 135.035 263.713 135.035H288.229C288.782 135.035 289.229 135.483 289.229 136.035V160.551C289.229 161.104 288.782 161.551 288.229 161.551ZM264.714 159.551H287.23V137.035H264.714V159.551Z" fill="#D1E3FF"/>
<path d="M288.229 161.551C287.973 161.551 287.717 161.453 287.522 161.258C287.131 160.867 287.131 160.235 287.522 159.844L312.039 135.328C312.43 134.937 313.062 134.937 313.453 135.328C313.844 135.719 313.844 136.351 313.453 136.742L288.936 161.258C288.741 161.454 288.485 161.551 288.229 161.551Z" fill="#D1E3FF"/>
<path d="M263.714 161.551C263.458 161.551 263.202 161.453 263.007 161.258C262.616 160.867 262.616 160.235 263.007 159.844L287.523 135.328C287.914 134.937 288.546 134.937 288.937 135.328C289.328 135.719 289.328 136.351 288.937 136.742L264.421 161.258C264.226 161.454 263.97 161.551 263.714 161.551Z" fill="#D1E3FF"/>
<path d="M263.714 161.551H239.197C238.645 161.551 238.197 161.103 238.197 160.551C238.197 159.999 238.645 159.551 239.197 159.551H262.714V136.035C262.714 135.483 263.161 135.035 263.714 135.035C264.267 135.035 264.714 135.483 264.714 136.035V160.551C264.714 161.104 264.267 161.551 263.714 161.551Z" fill="#D1E3FF"/>
<path d="M386.295 243.455C386.039 243.455 385.783 243.357 385.588 243.162L361.071 218.645C360.68 218.254 360.68 217.622 361.071 217.231C361.462 216.84 362.094 216.84 362.485 217.231L387.002 241.748C387.393 242.139 387.393 242.771 387.002 243.162C386.807 243.357 386.551 243.455 386.295 243.455Z" fill="#D1E3FF"/>
<path d="M386.295 218.938H361.778C361.225 218.938 360.778 218.49 360.778 217.938V193.422C360.778 192.87 361.225 192.422 361.778 192.422H386.295C386.848 192.422 387.295 192.87 387.295 193.422V217.938C387.295 218.49 386.848 218.938 386.295 218.938ZM362.778 216.938H385.295V194.422H362.778V216.938Z" fill="#D1E3FF"/>
<path d="M386.295 194.422H361.778C361.225 194.422 360.778 193.974 360.778 193.422V168.906C360.778 168.354 361.225 167.906 361.778 167.906H386.295C386.848 167.906 387.295 168.354 387.295 168.906V193.422C387.295 193.974 386.848 194.422 386.295 194.422ZM362.778 192.422H385.295V169.906H362.778V192.422Z" fill="#D1E3FF"/>
<path d="M386.295 218.938C386.039 218.938 385.783 218.84 385.588 218.645L361.071 194.129C360.68 193.738 360.68 193.106 361.071 192.715C361.462 192.324 362.094 192.324 362.485 192.715L387.002 217.231C387.393 217.622 387.393 218.254 387.002 218.645C386.807 218.84 386.551 218.938 386.295 218.938Z" fill="#D1E3FF"/>
<path d="M386.295 194.422C386.039 194.422 385.783 194.324 385.588 194.129L361.071 169.614C360.68 169.223 360.68 168.59 361.071 168.199C361.462 167.808 362.094 167.808 362.485 168.199L387.002 192.715C387.393 193.106 387.393 193.738 387.002 194.129C386.807 194.324 386.551 194.422 386.295 194.422Z" fill="#D1E3FF"/>
<path d="M435.327 160.553H239.197L263.714 168.906H435.327V160.553Z" fill="#D1E3FF"/>
<path d="M435.327 169.905H263.714C263.605 169.905 263.495 169.887 263.392 169.852L238.875 161.498C238.412 161.34 238.131 160.871 238.211 160.388C238.291 159.906 238.708 159.551 239.197 159.551H435.327C435.88 159.551 436.327 159.999 436.327 160.551V168.905C436.327 169.457 435.88 169.905 435.327 169.905ZM263.88 167.905H434.327V161.551H245.233L263.88 167.905Z" fill="#D1E3FF"/>
<path d="M343.629 203.303H361.779V164.728H343.629V203.303Z" fill="#D1E3FF"/>
<path d="M343.628 164.729H335.184V203.304H343.628V164.729Z" fill="#F3F8FF"/>
<path d="M364.48 382.398H400.223V365.035H364.48V382.398Z" fill="#D1E3FF"/>
<path d="M364.479 365.035H347.85V382.398H364.479V365.035Z" fill="#F3F8FF"/>
<path d="M410.811 203.637C410.258 203.637 409.811 203.189 409.811 202.637V164.729C409.811 164.177 410.258 163.729 410.811 163.729C411.364 163.729 411.811 164.177 411.811 164.729V202.637C411.811 203.189 411.364 203.637 410.811 203.637Z" fill="#D1E3FF"/>
<path d="M410.811 208.237C408.992 208.237 407.511 206.757 407.511 204.937C407.511 203.118 408.991 201.637 410.811 201.637C412.63 201.637 414.111 203.117 414.111 204.937C414.111 206.756 412.631 208.237 410.811 208.237ZM410.811 203.637C410.094 203.637 409.511 204.22 409.511 204.937C409.511 205.654 410.094 206.237 410.811 206.237C411.528 206.237 412.111 205.654 412.111 204.937C412.111 204.22 411.528 203.637 410.811 203.637Z" fill="#D1E3FF"/>
<path d="M266.795 223.538C266.242 223.538 265.795 223.09 265.795 222.538V164.729C265.795 164.177 266.242 163.729 266.795 163.729C267.348 163.729 267.795 164.177 267.795 164.729V222.538C267.795 223.09 267.348 223.538 266.795 223.538Z" fill="#D1E3FF"/>
<path d="M276.182 229.526C275.69 229.526 275.281 229.171 275.198 228.703C274.465 227.535 267.953 223.687 266.76 223.536C265.637 223.687 259.125 227.535 258.393 228.703C258.31 229.171 257.901 229.526 257.409 229.526C256.856 229.526 256.409 229.078 256.409 228.526C256.409 226.279 265.484 221.537 266.796 221.537C268.108 221.537 277.183 226.279 277.183 228.526C277.182 229.079 276.734 229.526 276.182 229.526Z" fill="#D1E3FF"/>
<path d="M286.961 301.805L301.63 287.136L298.504 281.167C298.504 281.166 298.505 281.166 298.505 281.165C298.776 280.566 299.025 279.964 299.259 279.352V279.351L305.687 277.341V256.596L299.256 254.585C299.023 253.973 298.777 253.367 298.506 252.768L301.631 246.801L286.962 232.132L280.995 235.257C280.995 235.257 280.995 235.257 280.994 235.257C280.395 234.986 279.79 234.74 279.178 234.507L277.167 228.076H256.422L254.411 234.508C253.797 234.738 253.195 234.987 252.597 235.258C252.596 235.258 252.596 235.259 252.595 235.259L246.627 232.134L231.958 246.803L235.084 252.772C234.814 253.37 234.565 253.976 234.332 254.587L227.901 256.598V277.343L234.331 279.353C234.564 279.965 234.81 280.57 235.081 281.169C235.081 281.17 235.081 281.17 235.082 281.17L231.958 287.136L246.627 301.805L252.594 298.681C253.193 298.952 253.798 299.198 254.41 299.431L256.421 305.861H277.166L279.177 299.428C279.787 299.196 280.393 298.947 280.99 298.677L286.961 301.805ZM277.713 277.884C271.679 283.918 261.905 283.918 255.876 277.888C249.847 271.859 249.847 262.084 255.88 256.051C261.909 250.022 271.684 250.022 277.713 256.051C283.742 262.08 283.742 271.855 277.713 277.884Z" fill="#D1E3FF"/>
<path d="M250 427.56C357.082 427.56 443.889 422.491 443.889 416.237C443.889 409.984 357.082 404.914 250 404.914C142.918 404.914 56.1108 409.984 56.1108 416.237C56.1108 422.491 142.918 427.56 250 427.56Z" fill="#F0F6FF"/>
<path d="M175.892 163.145H163.41C162.247 163.145 161.173 163.765 160.592 164.772L154.351 175.581C153.77 176.588 153.77 177.828 154.351 178.835L160.592 189.644C161.173 190.651 162.248 191.271 163.41 191.271H175.891C177.054 191.271 178.128 190.651 178.709 189.644L184.95 178.835C185.531 177.828 185.531 176.588 184.95 175.581L178.709 164.772C178.128 163.765 177.054 163.145 175.892 163.145Z" fill="#9FC6FF"/>
<path d="M95.9961 127.328L95.2891 126.621L101.331 120.579L102.038 121.286L95.9961 127.328ZM106.329 116.995L105.622 116.288L118.163 103.746L118.87 104.453L106.329 116.995Z" fill="#9FC6FF"/>
<path d="M254.505 199.837V154.577L240.474 150.191C240.473 150.19 240.473 150.188 240.473 150.187C239.967 148.845 239.422 147.531 238.839 146.228C238.839 146.227 238.838 146.226 238.838 146.225L245.654 133.209L213.651 101.206L200.627 108.026C199.324 107.442 198.01 106.888 196.667 106.382L192.282 92.3555H147.023L142.638 106.381C142.637 106.381 142.637 106.381 142.636 106.381C141.294 106.887 139.98 107.441 138.677 108.025L125.654 101.206L93.6499 133.209L100.47 146.233C99.8769 147.535 99.3329 148.847 98.8279 150.187C98.8269 150.188 98.8269 150.19 98.8259 150.191L84.7979 154.577V199.837L98.8289 204.223C99.3329 205.562 99.8859 206.882 100.468 208.182L93.6479 221.205L125.651 253.208L138.672 246.39L138.673 246.391C139.977 246.975 141.29 247.529 142.633 248.035C142.634 248.036 142.635 248.036 142.636 248.036L147.02 262.06H192.279L196.664 248.035C198.006 247.529 199.32 246.975 200.623 246.391C200.624 246.39 200.625 246.39 200.626 246.39L213.648 253.209L245.651 221.206L238.83 208.18C239.412 206.881 239.964 205.562 240.468 204.225L254.505 199.837ZM203.333 177.201C203.333 195.817 188.253 210.897 169.651 210.897C151.048 210.897 135.969 195.818 135.969 177.201C135.969 158.598 151.048 143.519 169.651 143.519C188.254 143.519 203.333 158.599 203.333 177.201Z" fill="#9FC6FF"/>
<path d="M190.077 259.31H149.227C149.118 259.31 149.021 259.239 148.988 259.134L145.042 246.512C145.001 246.38 145.074 246.24 145.206 246.199C145.34 246.159 145.478 246.232 145.52 246.363L149.411 258.81H189.893L194.001 245.67C194.024 245.597 194.08 245.538 194.151 245.511L195.519 244.994C196.675 244.559 197.911 244.045 199.296 243.425L200.628 242.829C200.752 242.77 200.902 242.829 200.958 242.955C201.015 243.081 200.958 243.229 200.832 243.285L199.5 243.881C198.105 244.506 196.861 245.024 195.695 245.462L194.441 245.936L190.314 259.134C190.283 259.239 190.186 259.31 190.077 259.31ZM213.089 249.779C213.025 249.779 212.961 249.755 212.912 249.706C212.814 249.608 212.814 249.45 212.912 249.352L241.666 220.598L235.279 208.4C235.244 208.333 235.241 208.252 235.272 208.182L235.865 206.854C236.472 205.497 236.984 204.262 237.429 203.079L237.945 201.71C237.972 201.638 238.031 201.582 238.104 201.559L251.255 197.449V156.967L238.288 152.914C238.156 152.873 238.083 152.732 238.124 152.601C238.166 152.469 238.305 152.395 238.438 152.437L251.58 156.545C251.685 156.578 251.756 156.674 251.756 156.784V197.634C251.756 197.743 251.685 197.84 251.58 197.873L238.37 202.001L237.897 203.256C237.448 204.448 236.933 205.692 236.322 207.059L235.779 208.276L242.194 220.529C242.244 220.626 242.226 220.745 242.149 220.822L213.265 249.706C213.217 249.754 213.153 249.779 213.089 249.779ZM126.216 249.779C126.152 249.779 126.088 249.755 126.039 249.706L97.1538 220.822C97.0768 220.745 97.0588 220.626 97.1088 220.529L103.581 208.17C103.645 208.049 103.798 208.003 103.919 208.065C104.041 208.129 104.089 208.28 104.024 208.403L97.6368 220.599L126.392 249.353C126.49 249.451 126.49 249.609 126.392 249.707C126.344 249.754 126.28 249.779 126.216 249.779ZM143.191 245.287C143.161 245.287 143.13 245.282 143.101 245.27C142.085 244.877 141.006 244.423 139.8 243.882C139.674 243.826 139.617 243.678 139.674 243.552C139.73 243.426 139.878 243.368 140.004 243.426C141.202 243.963 142.274 244.413 143.281 244.804C143.41 244.854 143.474 244.998 143.424 245.127C143.386 245.226 143.291 245.287 143.191 245.287ZM169.651 214.148C149.286 214.148 132.718 197.574 132.718 177.203C132.718 177.065 132.83 176.953 132.968 176.953C133.106 176.953 133.218 177.065 133.218 177.203C133.218 197.299 149.562 213.648 169.651 213.648C189.739 213.648 206.083 197.299 206.083 177.203C206.083 157.114 189.74 140.77 169.651 140.77C169.513 140.77 169.401 140.658 169.401 140.52C169.401 140.382 169.513 140.27 169.651 140.27C190.015 140.27 206.583 156.838 206.583 177.203C206.583 197.574 190.016 214.148 169.651 214.148ZM101.638 203.417C101.537 203.417 101.442 203.355 101.404 203.255L100.93 202L87.7238 197.873C87.6198 197.84 87.5488 197.744 87.5488 197.634V156.784C87.5488 156.675 87.6198 156.578 87.7238 156.545L100.352 152.598C100.487 152.556 100.624 152.631 100.665 152.762C100.706 152.894 100.633 153.034 100.501 153.075L88.0478 156.967V197.449L101.195 201.558C101.268 201.581 101.327 201.637 101.354 201.708L101.871 203.077C101.92 203.206 101.854 203.35 101.725 203.399C101.697 203.411 101.667 203.417 101.638 203.417ZM101.653 151.452C101.624 151.452 101.594 151.447 101.565 151.436C101.436 151.387 101.371 151.243 101.419 151.114C101.903 149.832 102.411 148.609 102.973 147.374C103.031 147.248 103.179 147.194 103.304 147.25C103.43 147.307 103.485 147.456 103.428 147.581C102.87 148.805 102.366 150.019 101.886 151.29C101.85 151.39 101.754 151.452 101.653 151.452ZM235.838 145.738C235.799 145.738 235.759 145.729 235.722 145.71C235.6 145.646 235.552 145.495 235.617 145.372L241.667 133.819L236.841 128.993C236.743 128.895 236.743 128.737 236.841 128.639C236.939 128.541 237.097 128.541 237.195 128.639L242.151 133.595C242.228 133.672 242.246 133.791 242.196 133.888L236.061 145.603C236.015 145.689 235.928 145.738 235.838 145.738ZM97.3308 134.022C97.2668 134.022 97.2028 133.998 97.1538 133.949C97.0558 133.851 97.0558 133.693 97.1538 133.595L126.039 104.71C126.115 104.633 126.233 104.614 126.332 104.665L138.583 111.081L139.802 110.535C140.978 110.007 142.058 109.554 143.102 109.148C143.23 109.097 143.376 109.162 143.425 109.291C143.475 109.419 143.411 109.564 143.282 109.614C142.246 110.016 141.175 110.466 140.006 110.991L138.676 111.587C138.606 111.618 138.526 111.615 138.458 111.581L126.261 105.194L97.5058 133.949C97.4588 133.998 97.3948 134.022 97.3308 134.022ZM232.851 124.899C232.787 124.899 232.723 124.875 232.674 124.826L213.041 105.194L200.843 111.581C200.777 111.616 200.695 111.62 200.625 111.587L199.297 110.992C197.927 110.378 196.692 109.865 195.521 109.424L194.152 108.908C194.08 108.881 194.024 108.822 194.001 108.749L189.893 95.6064H149.411L145.874 106.92C145.832 107.051 145.694 107.126 145.561 107.084C145.429 107.043 145.356 106.902 145.397 106.771L148.989 95.2824C149.022 95.1784 149.118 95.1074 149.228 95.1074H190.078C190.187 95.1074 190.284 95.1784 190.317 95.2824L194.444 108.484L195.699 108.957C196.88 109.402 198.124 109.919 199.503 110.537L200.721 111.082L212.974 104.666C213.072 104.617 213.19 104.634 213.267 104.711L233.03 124.473C233.128 124.571 233.128 124.729 233.03 124.827C232.978 124.875 232.915 124.899 232.851 124.899Z" fill="white"/>
<path d="M313.344 185.387C316.472 189.369 319.396 193.383 322.255 197.517C325.088 201.659 327.837 205.869 330.415 210.271C331.063 211.363 331.683 212.499 332.313 213.616C333.395 215.592 333.744 217.476 333.876 219.105C334.106 222.383 333.636 225.126 333.041 227.781C331.778 233.051 329.863 237.758 327.421 242.391L322.274 240.407C323.242 235.758 324.124 230.921 324.476 226.423C324.626 224.197 324.636 221.961 324.283 220.315C324.103 219.5 323.848 218.93 323.673 218.763C323.009 217.771 322.368 216.778 321.675 215.79C318.968 211.824 316.099 207.881 313.206 203.952L304.515 192.174L313.344 185.387Z" fill="#FF8B7B"/>
<path d="M321.91 239.808L319.252 244.568L328.535 245.944C328.535 245.944 329.49 241.9 327.196 239.18L321.91 239.808Z" fill="#FF8B7B"/>
<path d="M317.85 250.896L325.576 251.674L328.534 245.943L319.252 244.568L317.85 250.896Z" fill="#FF8B7B"/>
<path d="M343.001 279.299L345.757 264.607C346.422 261.063 349.857 258.712 353.392 259.375L376.557 263.72C373.384 253.092 364.521 244.574 352.866 242.388C344.512 240.821 336.317 242.808 329.833 247.28L224.714 185.057C226 169.603 215.41 155.377 199.836 152.456C188.181 150.27 176.833 154.998 170.025 163.754L193.19 168.099C196.724 168.762 199.075 172.197 198.41 175.741L195.655 190.434C194.99 193.978 191.555 196.328 188.021 195.666L164.856 191.321C168.029 201.949 176.892 210.467 188.547 212.653C197.007 214.24 205.3 212.179 211.821 207.587L316.73 269.685C315.281 285.254 325.903 299.645 341.577 302.584C353.232 304.77 364.579 300.042 371.388 291.286L348.223 286.942C344.687 286.278 342.337 282.843 343.001 279.299Z" fill="#407BFF"/>
<path d="M310.017 258.381L224.782 207.929C223.234 207.013 222.722 205.015 223.638 203.467L227.115 197.593C228.031 196.045 230.029 195.533 231.577 196.449L316.812 246.901C318.36 247.817 318.872 249.815 317.956 251.363L314.479 257.237C313.563 258.785 311.565 259.297 310.017 258.381Z" fill="#5592FF"/>
<path d="M277.736 154.313C277.644 154.898 277.26 155.324 276.877 155.264C276.494 155.204 276.259 154.681 276.35 154.096C276.442 153.511 276.826 153.085 277.209 153.144C277.592 153.204 277.827 153.727 277.736 154.313Z" fill="#0F264C"/>
<path d="M277.313 155.332C277.313 155.332 275.453 158.501 273.732 159.901C274.616 161.03 276.446 160.864 276.446 160.864L277.313 155.332Z" fill="#FF5652"/>
<path d="M280.372 151.398C280.283 151.398 280.195 151.364 280.127 151.297C279.021 150.204 277.768 150.463 277.756 150.465C277.562 150.509 277.382 150.386 277.342 150.199C277.301 150.011 277.42 149.826 277.608 149.785C277.676 149.771 279.251 149.449 280.618 150.802C280.755 150.937 280.756 151.157 280.62 151.294C280.552 151.364 280.462 151.398 280.372 151.398Z" fill="#0F264C"/>
<path d="M297.271 160.762C296.217 166.136 295.166 175.984 298.926 179.57C298.926 179.57 297.457 185.022 287.47 185.022C276.489 185.022 282.222 179.571 282.222 179.571C288.215 178.14 288.06 173.693 287.016 169.518L297.271 160.762Z" fill="#FF8B7B"/>
<path d="M304.042 183.605C303.918 183.435 303.831 183.239 303.774 183.024C302.934 179.84 299.399 177.345 294.818 177.223C289.985 177.095 284.545 177.675 281.317 180.341C279.903 181.509 281.474 183.222 281.474 183.222L304.042 183.605Z" fill="#77B3FC"/>
<path d="M339.31 384.825C339.285 384.825 339.26 384.823 339.235 384.82C339.041 384.799 338.781 384.68 338.644 384.244C338.572 384.015 338.601 383.788 338.73 383.569C339.289 382.621 341.698 382.12 341.799 382.098C341.868 382.088 341.936 382.112 341.976 382.167C342.016 382.223 342.019 382.297 341.985 382.357C341.606 383.007 340.239 384.825 339.31 384.825ZM341.46 382.536C340.658 382.744 339.362 383.183 339.03 383.746C338.952 383.878 338.934 384.007 338.976 384.141C339.074 384.452 339.225 384.47 339.274 384.475C339.773 384.54 340.833 383.457 341.46 382.536Z" fill="#407BFF"/>
<path d="M340.64 382.582C339.735 382.582 338.714 382.404 338.402 381.965C338.315 381.842 338.206 381.586 338.457 381.25C338.62 381.032 338.847 380.905 339.132 380.87C340.231 380.744 341.877 382.078 341.946 382.136C341.995 382.177 342.018 382.241 342.007 382.303C341.995 382.366 341.949 382.417 341.889 382.437C341.597 382.529 341.136 382.582 340.64 382.582ZM339.297 381.208C339.255 381.208 339.213 381.211 339.173 381.216C338.984 381.238 338.84 381.319 338.735 381.459C338.598 381.641 338.659 381.727 338.685 381.764C338.97 382.165 340.495 382.333 341.433 382.184C340.957 381.838 339.993 381.208 339.297 381.208Z" fill="#407BFF"/>
<path d="M266.679 409.113C265.737 409.113 264.826 408.983 264.521 408.559C264.414 408.412 264.33 408.159 264.535 407.799C264.65 407.597 264.836 407.46 265.087 407.392C266.315 407.054 268.877 408.523 268.987 408.585C269.05 408.621 269.084 408.692 269.072 408.764C269.06 408.835 269.006 408.892 268.934 408.907C268.464 409 267.558 409.113 266.679 409.113ZM265.514 407.689C265.392 407.689 265.279 407.702 265.178 407.729C265.017 407.772 264.906 407.852 264.837 407.972C264.713 408.189 264.758 408.295 264.803 408.357C265.144 408.832 267.003 408.842 268.367 408.65C267.686 408.3 266.372 407.689 265.514 407.689Z" fill="#407BFF"/>
<path d="M268.898 408.909C268.874 408.909 268.849 408.904 268.827 408.894C267.94 408.495 266.184 406.907 266.318 406.076C266.349 405.882 266.488 405.638 266.965 405.591C267.319 405.556 267.645 405.655 267.931 405.89C268.866 406.657 269.063 408.635 269.071 408.719C269.077 408.78 269.049 408.841 269 408.877C268.97 408.898 268.935 408.909 268.898 408.909ZM267.105 405.932C267.071 405.932 267.036 405.934 267.001 405.937C266.688 405.969 266.668 406.092 266.662 406.132C266.581 406.631 267.775 407.879 268.68 408.423C268.586 407.845 268.323 406.661 267.71 406.158C267.525 406.006 267.326 405.932 267.105 405.932Z" fill="#407BFF"/>
<path d="M276.976 408.736H269.63L268.898 391.723H276.245L276.976 408.736Z" fill="#FF8B7B"/>
<path d="M348.412 377.048L342.455 381.347L328.394 370.514L334.351 366.215L348.412 377.048Z" fill="#FF8B7B"/>
<path d="M341.601 381.286L347.316 375.332C347.524 375.115 347.855 375.072 348.111 375.228L353.827 378.703C354.42 379.064 354.514 379.891 354.025 380.384C351.994 382.428 350.903 383.321 348.389 385.94C346.843 387.551 342.635 393.212 340.5 395.436C338.412 397.612 335.886 395.84 336.561 394.738C339.587 389.797 341.022 384.895 341.101 382.46C341.116 382.02 341.297 381.603 341.601 381.286Z" fill="#14365B"/>
<path d="M269.678 407.885H277.701C278.001 407.885 278.261 408.094 278.326 408.387L279.777 414.917C279.927 415.594 279.413 416.236 278.72 416.224C275.826 416.175 271.644 416.005 268.007 416.005C263.754 416.005 260.081 416.237 255.093 416.237C252.077 416.237 251.24 413.188 252.502 412.912C258.249 411.655 262.941 411.52 267.908 408.458C268.448 408.125 269.044 407.885 269.678 407.885Z" fill="#14365B"/>
<path d="M303.063 195.077C304.093 196.927 305.193 198.717 306.283 200.387C308.163 203.277 309.983 205.777 311.293 207.497C312.463 209.047 313.213 209.957 313.213 209.957L328.013 199.867C328.013 199.867 319.053 182.347 312.083 181.227C304.943 180.097 298.413 186.777 303.063 195.077Z" fill="#19437F"/>
<path d="M306.283 200.386C308.163 203.276 309.983 205.776 311.293 207.496C311.143 204.056 310.433 198.486 307.763 194.256C306.783 195.216 306.393 197.696 306.283 200.386Z" fill="#133A68"/>
<path d="M267.313 205.556C267.313 208.056 267.373 210.806 267.513 213.836C267.873 222.076 268.773 232.346 270.493 245.106H309.783C310.053 239.076 306.263 209.646 312.083 181.226C312.083 181.226 305.343 179.876 298.923 179.566C293.903 179.326 286.633 179.166 282.223 179.566C276.403 180.106 270.923 181.606 270.923 181.606C270.923 181.606 267.303 185.696 267.313 205.556Z" fill="#19437F"/>
<path d="M267.313 205.556C267.313 208.056 267.373 210.806 267.513 213.836C272.123 209.336 272.433 200.146 272.433 200.146L267.313 205.556Z" fill="#133A68"/>
<path d="M275.495 194.15C274.605 195.645 273.842 196.69 273 197.789C272.174 198.865 271.338 199.892 270.486 200.902C268.795 202.928 266.993 204.828 265.146 206.697C261.404 210.39 257.417 213.874 252.703 216.862C251.511 217.597 250.27 218.298 248.946 218.94L248.443 219.176L248.192 219.294C248.118 219.33 248.023 219.373 247.88 219.429C247.373 219.629 246.84 219.842 246.362 219.953L245.625 220.141L244.928 220.261C244.453 220.35 244.021 220.378 243.581 220.409C240.121 220.572 237.359 219.925 234.7 219.158C229.426 217.556 224.836 215.267 220.355 212.446L222.724 207.465C227.32 208.768 232.125 210.011 236.587 210.623C238.789 210.904 241.029 211.037 242.55 210.71C242.728 210.666 242.919 210.636 243.052 210.583L243.272 210.52L243.433 210.443C243.563 210.405 243.593 210.343 243.665 210.313L244.274 209.97C245.16 209.454 246.054 208.861 246.942 208.219C250.513 205.627 253.952 202.359 257.19 198.935C258.822 197.228 260.387 195.441 261.916 193.656C262.675 192.761 263.415 191.854 264.111 190.952C264.783 190.07 265.512 189.109 265.916 188.471L275.495 194.15Z" fill="#FF8B7B"/>
<path d="M223.805 208.799L218.918 202.984L215.605 211.468C215.605 211.468 219.813 213.436 223.09 212.312L223.805 208.799Z" fill="#FF8B7B"/>
<path d="M211.759 201.729L210.403 208.503L215.604 211.469L218.918 202.985L211.759 201.729Z" fill="#FF8B7B"/>
<path d="M281.395 190.172C280.52 197.141 264.639 211.921 264.639 211.921L250.341 200.584C250.341 200.584 255.996 192.005 262.861 186.052C273.216 177.072 282.445 181.808 281.395 190.172Z" fill="#19437F"/>
<path d="M268.959 237.415C283.229 237.415 286.494 221.276 287.239 214.35C286.694 210.118 284.303 196.56 274.966 181.36C274.637 180.825 274.938 180.126 275.556 180.011L278.69 179.433C279.051 179.366 279.422 179.531 279.616 179.842C288.21 193.586 291.015 205.248 291.934 211.248C292.757 211.248 293.627 211.248 294.486 211.248C297.113 205.546 302.881 192.561 302.406 180.39C302.385 179.848 302.834 179.41 303.374 179.462L306.734 179.784C307.176 179.827 307.528 180.183 307.546 180.626C308.037 192.362 301.408 208.629 298.856 213.793C299.733 232.943 310.375 236.248 310.375 236.248C310.375 236.248 310.875 242.331 309.745 250.497C287.198 254.162 275.959 251.926 269.533 249.266C270.108 244.449 269.209 241.081 268.959 237.415Z" fill="#0053CC"/>
<path d="M268.9 391.729L269.276 400.497H276.625L276.249 391.729H268.9Z" fill="#EA7063"/>
<path d="M334.356 366.217L328.396 370.518L335.647 376.1L341.607 371.799L334.356 366.217Z" fill="#EA7063"/>
<path d="M297.456 156.13C295.888 163.25 295.333 167.498 291.124 170.619C284.793 175.314 276.434 170.632 275.842 163.187C275.31 156.486 277.962 145.967 285.448 144.208C292.823 142.475 299.023 149.009 297.456 156.13Z" fill="#FF8B7B"/>
<path d="M303.815 145.082C310.065 145.251 307.488 148.541 304.363 150.348C304.363 150.348 307.966 152.075 306.109 156.205C303.289 162.478 297.891 169.365 292.376 168.988C285.521 168.519 283.569 161.054 283.817 153.698C280.202 150.285 279.594 148.407 279.027 144.312C277.902 136.177 283.042 131.707 303.815 145.082Z" fill="#14365B"/>
<path d="M295.758 131.381C304.677 133.658 310.061 142.734 307.784 151.653L275.486 143.407C277.764 134.488 286.84 129.104 295.758 131.381Z" fill="#9FC6FF"/>
<path d="M302.143 151.672C302.024 151.672 301.902 151.658 301.781 151.627C301.001 151.428 300.529 150.632 300.728 149.851C301.651 146.238 300.974 142.44 298.824 139.157C296.646 135.832 293.226 133.434 289.192 132.405C288.412 132.206 287.94 131.41 288.139 130.629C288.339 129.848 289.132 129.379 289.914 129.577C294.655 130.787 298.686 133.622 301.264 137.558C303.868 141.536 304.682 146.157 303.555 150.573C303.387 151.233 302.794 151.672 302.143 151.672Z" fill="#77B3FC"/>
<path d="M270.946 143.84L308.936 153.539C309.758 153.749 310.601 153.248 310.811 152.427C311.021 151.605 310.52 150.762 309.699 150.552L271.709 140.853C270.887 140.643 270.044 141.144 269.834 141.965C269.624 142.786 270.125 143.63 270.946 143.84Z" fill="#77B3FC"/>
<path d="M287.575 155.464C287.397 157.365 286.451 159.128 285.347 160.264C283.687 161.973 282.054 160.819 281.843 158.661C281.653 156.719 282.288 153.49 284.278 152.584C286.239 151.691 287.779 153.29 287.575 155.464Z" fill="#FF8B7B"/>
<path d="M284.427 245.107C284.427 245.107 283.579 297.39 290.15 317.888C300.557 350.355 331.975 376.656 331.975 376.656L343.21 368.548C343.21 368.548 317.059 346.331 312.26 318.982C307.949 294.413 309.781 265.175 309.781 245.107C300.629 245.107 284.427 245.107 284.427 245.107Z" fill="#0053CC"/>
<path d="M291.763 254.086C293.153 263.506 288.243 289.736 286.543 298.326C284.763 282.266 284.433 263.216 284.403 252.816C288.003 250.376 291.123 249.746 291.763 254.086Z" fill="#004DAA"/>
<path d="M327.191 374.285C327.144 374.319 331.805 377.035 331.805 377.035L344.081 368.176L339.989 365.049L327.191 374.285Z" fill="#77B3FC"/>
<path d="M270.488 245.107C270.488 245.107 259.423 292.008 258.644 314.411C257.77 339.536 266.539 398.799 266.539 398.799H278.984C278.984 398.799 280.516 339.075 281.07 316.19C281.674 291.241 296.318 245.107 296.318 245.107H270.488Z" fill="#0053CC"/>
<path d="M264.144 393.842C264.087 393.842 264.846 399.009 264.846 399.009H279.984L280.393 394.398L264.144 393.842Z" fill="#77B3FC"/>
</svg>
