<svg width="204" height="36" viewBox="0 0 204 36" fill="none" xmlns="http://www.w3.org/2000/svg">
<path d="M29.7011 28.5412C32.3874 25.5585 33.8335 21.6628 33.7441 17.6498C33.6547 13.6368 32.0365 9.80931 29.2202 6.94922L24.0938 11.9973C25.6237 13.5509 26.5027 15.6301 26.5512 17.81C26.5998 19.9899 25.8142 22.1062 24.355 23.7264L29.7011 28.5412Z" fill="#16CDC7"/>
<path d="M29.1962 6.92259C26.8575 4.55894 23.8308 2.99605 20.5496 2.45777C17.2684 1.91949 13.901 2.43344 10.9297 3.926L14.1592 10.3551C15.7733 9.54431 17.6025 9.26512 19.3849 9.55753C21.1673 9.84993 22.8115 10.6989 24.0819 11.9829L29.1962 6.92259Z" fill="#00ceb6"/>
<path d="M12.0179 3.42969C9.83204 4.32725 7.87611 5.70514 6.29506 7.46127C4.714 9.21741 3.54834 11.3068 2.88444 13.5746C2.22054 15.8424 2.0754 18.2305 2.4598 20.5621C2.84419 22.8936 3.74825 25.1087 5.10501 27.0434C6.46176 28.9781 8.23644 30.5827 10.2976 31.7383C12.3587 32.894 14.6534 33.5711 17.0117 33.7195C19.3701 33.8678 21.7316 33.4837 23.9213 32.5954C26.111 31.7072 28.0727 30.3376 29.6613 28.5883L24.3349 23.7517C23.472 24.7019 22.4063 25.4459 21.2168 25.9284C20.0273 26.4109 18.7445 26.6196 17.4635 26.539C16.1824 26.4584 14.9358 26.0906 13.8162 25.4628C12.6966 24.8351 11.7325 23.9634 10.9955 22.9125C10.2585 21.8615 9.76742 20.6582 9.55862 19.3917C9.34981 18.1252 9.42865 16.8279 9.78929 15.596C10.1499 14.3641 10.7831 13.2291 11.642 12.2751C12.5008 11.3212 13.5633 10.5727 14.7508 10.0851L12.0179 3.42969Z" fill="#00A1FF"/>
<path d="M50.616 26V11.528H45.672V9.2H58.416V11.528H53.472V26H50.616ZM62.7338 26.288C61.7418 26.288 60.9178 26.12 60.2617 25.784C59.6058 25.448 59.1178 25 58.7978 24.44C58.4778 23.88 58.3178 23.272 58.3178 22.616C58.3178 21.848 58.5098 21.184 58.8938 20.624C59.2938 20.064 59.8778 19.632 60.6458 19.328C61.4138 19.008 62.3578 18.848 63.4778 18.848H66.5258C66.5258 18.208 66.4378 17.68 66.2618 17.264C66.0858 16.832 65.8138 16.512 65.4458 16.304C65.0778 16.096 64.6058 15.992 64.0298 15.992C63.3738 15.992 62.8138 16.144 62.3498 16.448C61.8858 16.736 61.5978 17.184 61.4858 17.792H58.6538C58.7498 16.928 59.0378 16.192 59.5178 15.584C59.9978 14.96 60.6298 14.48 61.4138 14.144C62.2138 13.792 63.0858 13.616 64.0298 13.616C65.1658 13.616 66.1338 13.816 66.9338 14.216C67.7338 14.6 68.3418 15.16 68.7578 15.896C69.1898 16.616 69.4058 17.488 69.4058 18.512V26H66.9578L66.6698 24.056C66.5098 24.376 66.3018 24.672 66.0458 24.944C65.8058 25.216 65.5258 25.456 65.2058 25.664C64.8858 25.856 64.5178 26.008 64.1018 26.12C63.7018 26.232 63.2458 26.288 62.7338 26.288ZM63.3818 24.008C63.8458 24.008 64.2538 23.928 64.6058 23.768C64.9738 23.592 65.2858 23.352 65.5418 23.048C65.8138 22.728 66.0218 22.376 66.1658 21.992C66.3098 21.608 66.4058 21.2 66.4538 20.768V20.72H63.7898C63.2298 20.72 62.7658 20.792 62.3978 20.936C62.0298 21.064 61.7658 21.256 61.6058 21.512C61.4458 21.768 61.3658 22.064 61.3658 22.4C61.3658 22.736 61.4458 23.024 61.6058 23.264C61.7658 23.504 61.9978 23.688 62.3018 23.816C62.6058 23.944 62.9658 24.008 63.3818 24.008ZM72.603 26V13.904H75.483V26H72.603ZM74.043 11.984C73.515 11.984 73.075 11.824 72.723 11.504C72.387 11.168 72.219 10.76 72.219 10.28C72.219 9.784 72.387 9.384 72.723 9.08C73.075 8.76 73.515 8.6 74.043 8.6C74.571 8.6 75.003 8.76 75.339 9.08C75.691 9.384 75.867 9.784 75.867 10.28C75.867 10.76 75.691 11.168 75.339 11.504C75.003 11.824 74.571 11.984 74.043 11.984ZM78.8111 26V8.72H81.6911V26H78.8111ZM87.3049 26L83.7529 13.904H86.6089L89.0809 23.84L88.5529 23.816L91.3129 13.904H94.5289L97.3129 23.816H96.7849L99.2569 13.904H102.113L98.5609 26H95.5849L92.6329 15.752H93.2329L90.2809 26H87.3049ZM104.291 26V13.904H107.171V26H104.291ZM105.73 11.984C105.203 11.984 104.763 11.824 104.411 11.504C104.075 11.168 103.907 10.76 103.907 10.28C103.907 9.784 104.075 9.384 104.411 9.08C104.763 8.76 105.203 8.6 105.73 8.6C106.259 8.6 106.691 8.76 107.027 9.08C107.379 9.384 107.555 9.784 107.555 10.28C107.555 10.76 107.379 11.168 107.027 11.504C106.691 11.824 106.259 11.984 105.73 11.984ZM110.499 26V13.904H113.043L113.259 15.92C113.627 15.216 114.155 14.656 114.843 14.24C115.531 13.824 116.347 13.616 117.291 13.616C118.267 13.616 119.099 13.824 119.787 14.24C120.475 14.64 121.003 15.232 121.371 16.016C121.755 16.8 121.947 17.776 121.947 18.944V26H119.067V19.208C119.067 18.2 118.843 17.424 118.395 16.88C117.947 16.336 117.283 16.064 116.403 16.064C115.827 16.064 115.307 16.2 114.843 16.472C114.395 16.744 114.035 17.144 113.763 17.672C113.507 18.184 113.379 18.808 113.379 19.544V26H110.499ZM130.359 26.288C129.239 26.288 128.239 26.016 127.359 25.472C126.479 24.928 125.791 24.176 125.295 23.216C124.815 22.256 124.575 21.168 124.575 19.952C124.575 18.736 124.823 17.656 125.319 16.712C125.815 15.752 126.503 15 127.383 14.456C128.279 13.896 129.287 13.616 130.407 13.616C131.319 13.616 132.111 13.792 132.783 14.144C133.471 14.48 134.015 14.96 134.415 15.584V8.72H137.295V26H134.703L134.415 24.248C134.159 24.6 133.847 24.936 133.479 25.256C133.111 25.56 132.671 25.808 132.159 26C131.647 26.192 131.047 26.288 130.359 26.288ZM130.959 23.792C131.647 23.792 132.255 23.632 132.783 23.312C133.311 22.976 133.719 22.52 134.007 21.944C134.295 21.368 134.439 20.704 134.439 19.952C134.439 19.2 134.295 18.536 134.007 17.96C133.719 17.384 133.311 16.936 132.783 16.616C132.255 16.296 131.647 16.136 130.959 16.136C130.303 16.136 129.711 16.296 129.183 16.616C128.655 16.936 128.239 17.384 127.935 17.96C127.647 18.536 127.503 19.2 127.503 19.952C127.503 20.704 127.647 21.368 127.935 21.944C128.239 22.52 128.655 22.976 129.183 23.312C129.711 23.632 130.303 23.792 130.959 23.792ZM144.243 26.288C143.331 26.288 142.563 26.112 141.939 25.76C141.315 25.408 140.843 24.952 140.523 24.392C140.203 23.816 140.043 23.2 140.043 22.544C140.043 21.664 140.243 20.944 140.643 20.384C141.043 19.824 141.603 19.408 142.323 19.136C143.059 18.848 143.907 18.704 144.867 18.704H148.515C148.515 17.84 148.387 17.104 148.131 16.496C147.891 15.888 147.515 15.416 147.003 15.08C146.491 14.744 145.819 14.576 144.987 14.576C144.011 14.576 143.203 14.808 142.563 15.272C141.939 15.736 141.539 16.44 141.363 17.384H140.259C140.371 16.536 140.651 15.84 141.099 15.296C141.563 14.736 142.131 14.32 142.803 14.048C143.475 13.76 144.203 13.616 144.987 13.616C146.091 13.616 146.979 13.84 147.651 14.288C148.323 14.72 148.811 15.312 149.115 16.064C149.435 16.8 149.595 17.64 149.595 18.584V26H148.635L148.515 23.576C148.387 23.832 148.211 24.12 147.987 24.44C147.763 24.76 147.483 25.056 147.147 25.328C146.811 25.6 146.403 25.824 145.923 26C145.459 26.192 144.899 26.288 144.243 26.288ZM144.363 25.304C145.051 25.304 145.651 25.176 146.163 24.92C146.675 24.648 147.107 24.296 147.459 23.864C147.811 23.416 148.075 22.936 148.251 22.424C148.427 21.912 148.515 21.408 148.515 20.912V19.64H144.939C143.995 19.64 143.251 19.768 142.707 20.024C142.163 20.264 141.771 20.6 141.531 21.032C141.307 21.464 141.195 21.96 141.195 22.52C141.195 23.032 141.315 23.504 141.555 23.936C141.795 24.352 142.155 24.688 142.635 24.944C143.115 25.184 143.691 25.304 144.363 25.304ZM157.895 26.288C156.727 26.288 155.711 26.016 154.847 25.472C153.999 24.912 153.343 24.16 152.879 23.216C152.415 22.256 152.183 21.168 152.183 19.952C152.183 18.736 152.415 17.656 152.879 16.712C153.343 15.752 154.007 15 154.871 14.456C155.735 13.896 156.751 13.616 157.919 13.616C159.087 13.616 160.087 13.92 160.919 14.528C161.767 15.12 162.383 15.936 162.767 16.976V8.72H163.847V26H162.887L162.743 23.024C162.503 23.632 162.151 24.184 161.687 24.68C161.239 25.16 160.695 25.552 160.055 25.856C159.415 26.144 158.695 26.288 157.895 26.288ZM157.967 25.304C158.879 25.304 159.687 25.08 160.391 24.632C161.095 24.168 161.639 23.536 162.023 22.736C162.423 21.92 162.623 20.992 162.623 19.952C162.623 18.896 162.423 17.968 162.023 17.168C161.639 16.352 161.095 15.72 160.391 15.272C159.703 14.824 158.895 14.6 157.967 14.6C157.071 14.6 156.263 14.816 155.543 15.248C154.839 15.68 154.287 16.304 153.887 17.12C153.487 17.92 153.287 18.864 153.287 19.952C153.287 21.04 153.487 21.984 153.887 22.784C154.303 23.584 154.863 24.208 155.567 24.656C156.271 25.088 157.071 25.304 157.967 25.304ZM167.267 26V13.904H168.227L168.347 16.208C168.731 15.36 169.259 14.72 169.931 14.288C170.619 13.84 171.411 13.616 172.307 13.616C172.851 13.616 173.371 13.704 173.867 13.88C174.379 14.056 174.827 14.352 175.211 14.768C175.611 15.184 175.915 15.752 176.123 16.472C176.427 15.64 176.923 14.96 177.611 14.432C178.315 13.888 179.163 13.616 180.155 13.616C181.051 13.616 181.827 13.8 182.483 14.168C183.139 14.52 183.651 15.072 184.019 15.824C184.387 16.576 184.571 17.552 184.571 18.752V26H183.491V18.824C183.491 17.368 183.203 16.304 182.627 15.632C182.051 14.944 181.211 14.6 180.107 14.6C179.435 14.6 178.819 14.768 178.259 15.104C177.699 15.44 177.251 15.936 176.915 16.592C176.595 17.248 176.435 18.072 176.435 19.064V26H175.355V18.752C175.355 17.328 175.075 16.28 174.515 15.608C173.971 14.936 173.203 14.6 172.211 14.6C171.443 14.6 170.771 14.792 170.195 15.176C169.619 15.56 169.163 16.12 168.827 16.856C168.507 17.592 168.347 18.512 168.347 19.616V26H167.267ZM187.848 26V13.904H188.928V26H187.848ZM188.4 10.712C188.176 10.712 187.976 10.632 187.8 10.472C187.64 10.296 187.56 10.088 187.56 9.848C187.56 9.608 187.64 9.416 187.8 9.272C187.976 9.112 188.176 9.032 188.4 9.032C188.624 9.032 188.816 9.112 188.976 9.272C189.152 9.416 189.24 9.608 189.24 9.848C189.24 10.088 189.152 10.296 188.976 10.472C188.816 10.632 188.624 10.712 188.4 10.712ZM192.485 26V13.904H193.445L193.541 16.352C193.957 15.44 194.533 14.76 195.269 14.312C196.021 13.848 196.853 13.616 197.765 13.616C198.645 13.616 199.421 13.792 200.093 14.144C200.765 14.496 201.293 15.04 201.677 15.776C202.061 16.496 202.253 17.432 202.253 18.584V26H201.173V18.752C201.173 17.328 200.869 16.28 200.261 15.608C199.653 14.936 198.773 14.6 197.621 14.6C196.853 14.6 196.157 14.792 195.533 15.176C194.925 15.544 194.445 16.088 194.093 16.808C193.741 17.528 193.565 18.416 193.565 19.472V26H192.485Z" fill="white"/>
</svg>
