<svg width="150" height="25" viewBox="0 0 150 25" fill="none" xmlns="http://www.w3.org/2000/svg">
<path d="M0.941599 18.4591L0.731249 18.82C-0.379021 20.7249 0.265159 23.1692 2.17006 24.2794C4.07496 25.3897 6.51924 24.7455 7.62951 22.8406L7.83986 22.4797C8.95008 20.5748 8.30598 18.1305 6.40105 17.0203C4.49615 15.91 2.05187 16.5542 0.941599 18.4591Z" fill="#00A1FF"/>
<path opacity="0.25" d="M5.36755 6.15894L14.9943 22.833C16.0967 24.7424 18.5383 25.3966 20.4478 24.2942C22.3573 23.1918 23.0115 20.7502 21.9091 18.8407L12.2823 2.16674C11.1799 0.257241 8.73831 -0.39698 6.82881 0.70545C4.91936 1.80787 4.26513 4.24944 5.36755 6.15894Z" fill="#00A1FF"/>
<path opacity="0.25" d="M18.7386 6.15894L28.3654 22.833C29.4678 24.7424 31.9094 25.3966 33.8188 24.2942C35.7282 23.1918 36.3825 20.7502 35.2801 18.8407L25.6533 2.16674C24.5509 0.257241 22.1093 -0.39698 20.1998 0.70545C18.2904 1.80787 17.6362 4.24944 18.7386 6.15894Z" fill="#00A1FF"/>
<path d="M5.36755 6.15888L10.9734 15.8686C12.0759 17.7781 14.5175 18.4323 16.4269 17.3299C18.3364 16.2274 18.9906 13.7858 17.8882 11.8764L12.2823 2.16668C11.1799 0.257253 8.73829 -0.396977 6.8288 0.705443C4.91935 1.80787 4.26513 4.24948 5.36755 6.15888Z" fill="#00A1FF"/>
<path d="M18.7425 6.15888L24.4209 15.9942C25.5233 17.9036 27.9649 18.5579 29.8744 17.4554C31.7838 16.353 32.4381 13.9114 31.3356 12.002L25.6573 2.16668C24.5548 0.257251 22.1132 -0.39698 20.2038 0.70545C18.2943 1.80787 17.6401 4.24948 18.7425 6.15888Z" fill="#00A1FF"/>
<path d="M47.5781 4.49996H51.125L55.875 16.0937H56.0625L60.8125 4.49996H64.3594V20.5H61.5781V9.50776H61.4297L57.0078 20.4531H54.9297L50.5078 9.48436H50.3594V20.5H47.5781V4.49996ZM70.6238 20.7422C69.8633 20.7422 69.1784 20.6068 68.5691 20.3359C67.9649 20.0599 67.4857 19.6536 67.1316 19.1172C66.7826 18.5807 66.6081 17.9193 66.6081 17.1328C66.6081 16.4557 66.7331 15.8958 66.9831 15.4531C67.2331 15.0104 67.5743 14.6562 68.0066 14.3906C68.4389 14.125 68.9258 13.9245 69.4675 13.7891C70.0144 13.6484 70.5795 13.5469 71.1628 13.4844C71.8659 13.4115 72.4363 13.3464 72.8738 13.2891C73.3113 13.2266 73.629 13.1328 73.8269 13.0078C74.03 12.8776 74.1316 12.6771 74.1316 12.4062V12.3594C74.1316 11.7708 73.9571 11.3151 73.6081 10.9922C73.2592 10.6693 72.7566 10.5078 72.1003 10.5078C71.4076 10.5078 70.8581 10.6589 70.4519 10.9609C70.0508 11.263 69.78 11.6198 69.6394 12.0312L66.9988 11.6562C67.2071 10.9271 67.5508 10.3177 68.03 9.82806C68.5092 9.33326 69.0951 8.96346 69.7878 8.71866C70.4805 8.46876 71.2461 8.34376 72.0847 8.34376C72.6628 8.34376 73.2383 8.41146 73.8113 8.54686C74.3842 8.68226 74.9076 8.90616 75.3816 9.21866C75.8555 9.52596 76.2357 9.94526 76.5222 10.4766C76.8139 11.0078 76.9597 11.6719 76.9597 12.4687V20.5H74.2409V18.8516H74.1472C73.9753 19.1849 73.7331 19.4974 73.4206 19.7891C73.1133 20.0755 72.7253 20.3073 72.2566 20.4844C71.793 20.6563 71.2488 20.7422 70.6238 20.7422ZM71.3581 18.6641C71.9258 18.6641 72.418 18.5521 72.8347 18.3281C73.2514 18.099 73.5717 17.7969 73.7956 17.4219C74.0248 17.0469 74.1394 16.638 74.1394 16.1953V14.7812C74.0508 14.8542 73.8998 14.9219 73.6863 14.9844C73.4779 15.0469 73.2435 15.1016 72.9831 15.1484C72.7227 15.1953 72.4649 15.237 72.2097 15.2734C71.9545 15.3099 71.7331 15.3411 71.5456 15.3672C71.1238 15.4245 70.7461 15.5182 70.4128 15.6484C70.0795 15.7786 69.8165 15.9609 69.6238 16.1953C69.431 16.4245 69.3347 16.7214 69.3347 17.0859C69.3347 17.6068 69.5248 18 69.905 18.2656C70.2852 18.5312 70.7696 18.6641 71.3581 18.6641ZM85.5756 8.49996V10.6875H78.6772V8.49996H85.5756ZM80.3803 5.62496H83.2084V16.8906C83.2084 17.2708 83.2657 17.5625 83.3803 17.7656C83.5001 17.9635 83.6564 18.099 83.8491 18.1719C84.0418 18.2448 84.2553 18.2812 84.4897 18.2812C84.6668 18.2812 84.8282 18.2682 84.9741 18.2422C85.1251 18.2161 85.2397 18.1927 85.3178 18.1719L85.7944 20.3828C85.6433 20.4349 85.4272 20.4922 85.1459 20.5547C84.8699 20.6172 84.5314 20.6536 84.1303 20.6641C83.422 20.6849 82.784 20.5781 82.2163 20.3437C81.6485 20.1042 81.198 19.7344 80.8647 19.2344C80.5366 18.7344 80.3751 18.1094 80.3803 17.3594V5.62496ZM92.9045 20.7344C91.7013 20.7344 90.6623 20.4844 89.7873 19.9844C88.9175 19.4792 88.2482 18.7656 87.7795 17.8437C87.3107 16.9167 87.0763 15.8255 87.0763 14.5703C87.0763 13.3359 87.3107 12.2526 87.7795 11.3203C88.2534 10.3828 88.9149 9.65356 89.7638 9.13276C90.6128 8.60676 91.6102 8.34376 92.756 8.34376C93.4956 8.34376 94.1935 8.46346 94.8498 8.70306C95.5112 8.93746 96.0946 9.30206 96.5998 9.79686C97.1102 10.2917 97.5112 10.9219 97.8029 11.6875C98.095 12.4479 98.24 13.3542 98.24 14.4062V15.2734H88.4045V13.3672H95.5295C95.5242 12.8255 95.4071 12.3437 95.1779 11.9219C94.9487 11.4948 94.6284 11.1589 94.217 10.9141C93.8107 10.6693 93.3367 10.5469 92.7951 10.5469C92.217 10.5469 91.7091 10.6875 91.2716 10.9687C90.8341 11.2448 90.493 11.6094 90.2482 12.0625C90.0086 12.5104 89.8862 13.0026 89.881 13.5391V15.2031C89.881 15.901 90.0086 16.5 90.2638 17C90.519 17.4948 90.8758 17.875 91.3341 18.1406C91.7925 18.401 92.3289 18.5312 92.9435 18.5312C93.355 18.5312 93.7274 18.474 94.0607 18.3594C94.394 18.2396 94.6831 18.0651 94.9279 17.8359C95.1727 17.6068 95.3576 17.3229 95.4826 16.9844L98.123 17.2812C97.9565 17.9792 97.6388 18.5885 97.1701 19.1094C96.7065 19.625 96.1128 20.026 95.3888 20.3125C94.6649 20.5937 93.8367 20.7344 92.9045 20.7344ZM100.413 20.5V8.49996H103.155V10.5H103.28C103.499 9.80726 103.874 9.27336 104.405 8.89836C104.942 8.51816 105.554 8.32806 106.241 8.32806C106.397 8.32806 106.572 8.33586 106.765 8.35156C106.962 8.36196 107.127 8.38016 107.257 8.40616V11.0078C107.137 10.9661 106.947 10.9297 106.686 10.8984C106.431 10.862 106.184 10.8437 105.944 10.8437C105.429 10.8437 104.965 10.9557 104.554 11.1797C104.147 11.3984 103.827 11.7031 103.593 12.0937C103.358 12.4844 103.241 12.9349 103.241 13.4453V20.5H100.413ZM108.916 20.5V8.49996H111.744V20.5H108.916ZM110.338 6.79686C109.89 6.79686 109.504 6.64836 109.181 6.35156C108.858 6.04946 108.697 5.68746 108.697 5.26556C108.697 4.83846 108.858 4.47656 109.181 4.17966C109.504 3.87756 109.89 3.72656 110.338 3.72656C110.791 3.72656 111.176 3.87756 111.494 4.17966C111.817 4.47656 111.978 4.83846 111.978 5.26556C111.978 5.68746 111.817 6.04946 111.494 6.35156C111.176 6.64836 110.791 6.79686 110.338 6.79686ZM117.885 20.7422C117.125 20.7422 116.44 20.6068 115.83 20.3359C115.226 20.0599 114.747 19.6536 114.393 19.1172C114.044 18.5807 113.869 17.9193 113.869 17.1328C113.869 16.4557 113.994 15.8958 114.244 15.4531C114.494 15.0104 114.836 14.6562 115.268 14.3906C115.7 14.125 116.187 13.9245 116.729 13.7891C117.276 13.6484 117.841 13.5469 118.424 13.4844C119.127 13.4115 119.698 13.3464 120.135 13.2891C120.573 13.2266 120.89 13.1328 121.088 13.0078C121.291 12.8776 121.393 12.6771 121.393 12.4062V12.3594C121.393 11.7708 121.218 11.3151 120.869 10.9922C120.52 10.6693 120.018 10.5078 119.362 10.5078C118.669 10.5078 118.119 10.6589 117.713 10.9609C117.312 11.263 117.041 11.6198 116.901 12.0312L114.26 11.6562C114.468 10.9271 114.812 10.3177 115.291 9.82806C115.77 9.33326 116.356 8.96346 117.049 8.71866C117.742 8.46876 118.507 8.34376 119.346 8.34376C119.924 8.34376 120.5 8.41146 121.073 8.54686C121.645 8.68226 122.169 8.90616 122.643 9.21866C123.117 9.52596 123.497 9.94526 123.784 10.4766C124.075 11.0078 124.221 11.6719 124.221 12.4687V20.5H121.502V18.8516H121.409C121.237 19.1849 120.994 19.4974 120.682 19.7891C120.375 20.0755 119.987 20.3073 119.518 20.4844C119.054 20.6563 118.51 20.7422 117.885 20.7422ZM118.619 18.6641C119.187 18.6641 119.679 18.5521 120.096 18.3281C120.513 18.099 120.833 17.7969 121.057 17.4219C121.286 17.0469 121.401 16.638 121.401 16.1953V14.7812C121.312 14.8542 121.161 14.9219 120.948 14.9844C120.739 15.0469 120.505 15.1016 120.244 15.1484C119.984 15.1953 119.726 15.237 119.471 15.2734C119.216 15.3099 118.994 15.3411 118.807 15.3672C118.385 15.4245 118.007 15.5182 117.674 15.6484C117.341 15.7786 117.078 15.9609 116.885 16.1953C116.692 16.4245 116.596 16.7214 116.596 17.0859C116.596 17.6068 116.786 18 117.166 18.2656C117.547 18.5312 118.031 18.6641 118.619 18.6641ZM129.673 4.49996V20.5H126.845V4.49996H129.673ZM132.486 4.49996H136.033L140.783 16.0937H140.97L145.72 4.49996H149.267V20.5H146.486V9.50776H146.338L141.916 20.4531H139.838L135.416 9.48436H135.267V20.5H132.486V4.49996Z" fill="white"/>
</svg>
