<svg width="28" height="28" viewBox="0 0 28 28" fill="none" xmlns="http://www.w3.org/2000/svg">
<path d="M23.0996 22.1988C25.1889 19.8789 26.3136 16.8489 26.2441 13.7277C26.1746 10.6065 24.916 7.62955 22.7255 5.40503L18.7383 9.33131C19.9282 10.5397 20.6119 12.1568 20.6497 13.8523C20.6874 15.5478 20.0764 17.1938 18.9415 18.4539L23.0996 22.1988Z" fill="#16CDC7"/>
<path d="M22.7073 5.38424C20.8883 3.54585 18.5342 2.33026 15.9822 1.9116C13.4301 1.49294 10.811 1.89267 8.5 3.05355L11.0118 8.05396C12.2672 7.42335 13.69 7.20621 15.0763 7.43363C16.4626 7.66106 17.7414 8.32138 18.7295 9.32002L22.7073 5.38424Z" fill="#00ceb6"/>
<path d="M9.34728 2.66821C7.64714 3.36631 6.12586 4.43801 4.89616 5.80389C3.66645 7.16977 2.75982 8.79484 2.24345 10.5587C1.72708 12.3225 1.6142 14.18 1.91317 15.9934C2.21215 17.8068 2.91531 19.5297 3.97056 21.0344C5.02582 22.5392 6.40612 23.7872 8.00921 24.6861C9.6123 25.5849 11.3971 26.1115 13.2313 26.2269C15.0656 26.3423 16.9023 26.0435 18.6054 25.3527C20.3085 24.6618 21.8343 23.5966 23.0699 22.236L18.9271 18.4742C18.256 19.2133 17.4271 19.7919 16.502 20.1672C15.5768 20.5425 14.5791 20.7048 13.5827 20.6421C12.5863 20.5794 11.6168 20.2934 10.7459 19.8051C9.87512 19.3168 9.12532 18.6389 8.55208 17.8215C7.97885 17.0041 7.59689 16.0682 7.43448 15.0831C7.27207 14.098 7.33339 13.089 7.61389 12.1309C7.89439 11.1727 8.38688 10.29 9.05488 9.54801C9.72288 8.80604 10.5493 8.22388 11.4728 7.84466L9.34728 2.66821Z" fill="#00A1FF"/>
</svg>
