<svg width="152" height="29" viewBox="0 0 152 29" fill="none" xmlns="http://www.w3.org/2000/svg">
<path d="M2.94332 20.4595L2.73297 20.8204C1.6227 22.7253 2.26688 25.1696 4.17178 26.2798L4.17179 26.2798C6.07669 27.3901 8.52096 26.7459 9.63123 24.841L9.84158 24.4801C10.9518 22.5752 10.3077 20.1309 8.40277 19.0207L8.40276 19.0207C6.49786 17.9104 4.05359 18.5546 2.94332 20.4595Z" fill="#00A1FF"/>
<path opacity="0.25" d="M7.36539 8.15958L16.9922 24.8337C18.0946 26.7431 20.5362 27.3973 22.4456 26.2949L22.4457 26.2949C24.3551 25.1925 25.0093 22.7509 23.9069 20.8414L14.2801 4.16735C13.1777 2.2579 10.7361 1.60368 8.82664 2.70611C6.91719 3.80853 6.26297 6.25013 7.36539 8.15958Z" fill="#00A1FF"/>
<path opacity="0.25" d="M20.7404 8.15958L30.3672 24.8337C31.4696 26.7431 33.9112 27.3973 35.8206 26.2949L35.8207 26.2949C37.7301 25.1925 38.3843 22.7509 37.2819 20.8414L27.6551 4.16735C26.5527 2.2579 24.1111 1.60368 22.2016 2.70611C20.2922 3.80853 19.638 6.25013 20.7404 8.15958Z" fill="#00A1FF"/>
<path d="M7.36676 8.15914L12.9726 17.8688C14.0751 19.7783 16.5167 20.4325 18.4261 19.3301L18.4261 19.3301C20.3356 18.2276 20.9898 15.786 19.8874 13.8766L14.2815 4.16691C13.1791 2.25747 10.7375 1.60324 8.82801 2.70566C6.91856 3.80809 6.26434 6.24969 7.36676 8.15914Z" fill="#00A1FF"/>
<path d="M20.7396 8.15857L26.418 17.9938C27.5204 19.9033 29.962 20.5575 31.8714 19.4551L31.8714 19.4551C33.7809 18.3526 34.4351 15.911 33.3327 14.0016L27.6543 4.16634C26.5519 2.25689 24.1103 1.60267 22.2008 2.70509C20.2914 3.80751 19.6372 6.24912 20.7396 8.15857Z" fill="#00A1FF"/>
<path d="M49.5781 6.49996H53.125L57.875 18.0937H58.0625L62.8125 6.49996H66.3594V22.5H63.5781V11.5078H63.4297L59.0078 22.4531H56.9297L52.5078 11.4844H52.3594V22.5H49.5781V6.49996ZM72.6238 22.7422C71.8633 22.7422 71.1784 22.6068 70.5691 22.3359C69.9649 22.0599 69.4857 21.6536 69.1316 21.1172C68.7826 20.5807 68.6081 19.9193 68.6081 19.1328C68.6081 18.4557 68.7331 17.8958 68.9831 17.4531C69.2331 17.0104 69.5743 16.6562 70.0066 16.3906C70.4389 16.125 70.9258 15.9245 71.4675 15.7891C72.0144 15.6484 72.5795 15.5469 73.1628 15.4844C73.8659 15.4115 74.4363 15.3464 74.8738 15.2891C75.3113 15.2266 75.629 15.1328 75.8269 15.0078C76.03 14.8776 76.1316 14.6771 76.1316 14.4062V14.3594C76.1316 13.7708 75.9571 13.3151 75.6081 12.9922C75.2592 12.6693 74.7566 12.5078 74.1003 12.5078C73.4076 12.5078 72.8581 12.6589 72.4519 12.9609C72.0508 13.263 71.78 13.6198 71.6394 14.0312L68.9988 13.6562C69.2071 12.9271 69.5508 12.3177 70.03 11.8281C70.5092 11.3333 71.0951 10.9635 71.7878 10.7187C72.4805 10.4688 73.2461 10.3438 74.0847 10.3438C74.6628 10.3438 75.2383 10.4115 75.8113 10.5469C76.3842 10.6823 76.9076 10.9062 77.3816 11.2187C77.8555 11.526 78.2357 11.9453 78.5222 12.4766C78.8139 13.0078 78.9597 13.6719 78.9597 14.4687V22.5H76.2409V20.8516H76.1472C75.9753 21.1849 75.7331 21.4974 75.4206 21.7891C75.1133 22.0755 74.7253 22.3073 74.2566 22.4844C73.793 22.6563 73.2488 22.7422 72.6238 22.7422ZM73.3581 20.6641C73.9258 20.6641 74.418 20.5521 74.8347 20.3281C75.2514 20.099 75.5717 19.7969 75.7956 19.4219C76.0248 19.0469 76.1394 18.638 76.1394 18.1953V16.7812C76.0508 16.8542 75.8998 16.9219 75.6863 16.9844C75.4779 17.0469 75.2435 17.1016 74.9831 17.1484C74.7227 17.1953 74.4649 17.237 74.2097 17.2734C73.9545 17.3099 73.7331 17.3411 73.5456 17.3672C73.1238 17.4245 72.7461 17.5182 72.4128 17.6484C72.0795 17.7786 71.8165 17.9609 71.6238 18.1953C71.431 18.4245 71.3347 18.7214 71.3347 19.0859C71.3347 19.6068 71.5248 20 71.905 20.2656C72.2852 20.5312 72.7696 20.6641 73.3581 20.6641ZM87.5756 10.5V12.6875H80.6772V10.5H87.5756ZM82.3803 7.62496H85.2084V18.8906C85.2084 19.2708 85.2657 19.5625 85.3803 19.7656C85.5001 19.9635 85.6564 20.099 85.8491 20.1719C86.0418 20.2448 86.2553 20.2812 86.4897 20.2812C86.6668 20.2812 86.8282 20.2682 86.9741 20.2422C87.1251 20.2161 87.2397 20.1927 87.3178 20.1719L87.7944 22.3828C87.6433 22.4349 87.4272 22.4922 87.1459 22.5547C86.8699 22.6172 86.5314 22.6536 86.1303 22.6641C85.422 22.6849 84.784 22.5781 84.2163 22.3437C83.6485 22.1042 83.198 21.7344 82.8647 21.2344C82.5366 20.7344 82.3751 20.1094 82.3803 19.3594V7.62496ZM94.9045 22.7344C93.7013 22.7344 92.6623 22.4844 91.7873 21.9844C90.9175 21.4792 90.2482 20.7656 89.7795 19.8437C89.3107 18.9167 89.0763 17.8255 89.0763 16.5703C89.0763 15.3359 89.3107 14.2526 89.7795 13.3203C90.2534 12.3828 90.9149 11.6536 91.7638 11.1328C92.6128 10.6068 93.6102 10.3438 94.756 10.3438C95.4956 10.3438 96.1935 10.4635 96.8498 10.7031C97.5112 10.9375 98.0946 11.3021 98.5998 11.7969C99.1102 12.2917 99.5112 12.9219 99.8029 13.6875C100.095 14.4479 100.24 15.3542 100.24 16.4062V17.2734H90.4045V15.3672H97.5295C97.5242 14.8255 97.4071 14.3437 97.1779 13.9219C96.9487 13.4948 96.6284 13.1589 96.217 12.9141C95.8107 12.6693 95.3367 12.5469 94.7951 12.5469C94.217 12.5469 93.7091 12.6875 93.2716 12.9687C92.8341 13.2448 92.493 13.6094 92.2482 14.0625C92.0086 14.5104 91.8862 15.0026 91.881 15.5391V17.2031C91.881 17.901 92.0086 18.5 92.2638 19C92.519 19.4948 92.8758 19.875 93.3341 20.1406C93.7925 20.401 94.3289 20.5312 94.9435 20.5312C95.355 20.5312 95.7274 20.474 96.0607 20.3594C96.394 20.2396 96.6831 20.0651 96.9279 19.8359C97.1727 19.6068 97.3576 19.3229 97.4826 18.9844L100.123 19.2812C99.9565 19.9792 99.6388 20.5885 99.1701 21.1094C98.7065 21.625 98.1128 22.026 97.3888 22.3125C96.6649 22.5937 95.8367 22.7344 94.9045 22.7344ZM102.413 22.5V10.5H105.155V12.5H105.28C105.499 11.8073 105.874 11.2734 106.405 10.8984C106.942 10.5182 107.554 10.3281 108.241 10.3281C108.397 10.3281 108.572 10.3359 108.765 10.3516C108.962 10.362 109.127 10.3802 109.257 10.4062V13.0078C109.137 12.9661 108.947 12.9297 108.686 12.8984C108.431 12.862 108.184 12.8437 107.944 12.8437C107.429 12.8437 106.965 12.9557 106.554 13.1797C106.147 13.3984 105.827 13.7031 105.593 14.0937C105.358 14.4844 105.241 14.9349 105.241 15.4453V22.5H102.413ZM110.916 22.5V10.5H113.744V22.5H110.916ZM112.338 8.79686C111.89 8.79686 111.504 8.64836 111.181 8.35156C110.858 8.04946 110.697 7.68746 110.697 7.26556C110.697 6.83846 110.858 6.47656 111.181 6.17966C111.504 5.87756 111.89 5.72656 112.338 5.72656C112.791 5.72656 113.176 5.87756 113.494 6.17966C113.817 6.47656 113.978 6.83846 113.978 7.26556C113.978 7.68746 113.817 8.04946 113.494 8.35156C113.176 8.64836 112.791 8.79686 112.338 8.79686ZM119.885 22.7422C119.125 22.7422 118.44 22.6068 117.83 22.3359C117.226 22.0599 116.747 21.6536 116.393 21.1172C116.044 20.5807 115.869 19.9193 115.869 19.1328C115.869 18.4557 115.994 17.8958 116.244 17.4531C116.494 17.0104 116.836 16.6562 117.268 16.3906C117.7 16.125 118.187 15.9245 118.729 15.7891C119.276 15.6484 119.841 15.5469 120.424 15.4844C121.127 15.4115 121.698 15.3464 122.135 15.2891C122.573 15.2266 122.89 15.1328 123.088 15.0078C123.291 14.8776 123.393 14.6771 123.393 14.4062V14.3594C123.393 13.7708 123.218 13.3151 122.869 12.9922C122.52 12.6693 122.018 12.5078 121.362 12.5078C120.669 12.5078 120.119 12.6589 119.713 12.9609C119.312 13.263 119.041 13.6198 118.901 14.0312L116.26 13.6562C116.468 12.9271 116.812 12.3177 117.291 11.8281C117.77 11.3333 118.356 10.9635 119.049 10.7187C119.742 10.4688 120.507 10.3438 121.346 10.3438C121.924 10.3438 122.5 10.4115 123.073 10.5469C123.645 10.6823 124.169 10.9062 124.643 11.2187C125.117 11.526 125.497 11.9453 125.784 12.4766C126.075 13.0078 126.221 13.6719 126.221 14.4687V22.5H123.502V20.8516H123.409C123.237 21.1849 122.994 21.4974 122.682 21.7891C122.375 22.0755 121.987 22.3073 121.518 22.4844C121.054 22.6563 120.51 22.7422 119.885 22.7422ZM120.619 20.6641C121.187 20.6641 121.679 20.5521 122.096 20.3281C122.513 20.099 122.833 19.7969 123.057 19.4219C123.286 19.0469 123.401 18.638 123.401 18.1953V16.7812C123.312 16.8542 123.161 16.9219 122.948 16.9844C122.739 17.0469 122.505 17.1016 122.244 17.1484C121.984 17.1953 121.726 17.237 121.471 17.2734C121.216 17.3099 120.994 17.3411 120.807 17.3672C120.385 17.4245 120.007 17.5182 119.674 17.6484C119.341 17.7786 119.078 17.9609 118.885 18.1953C118.692 18.4245 118.596 18.7214 118.596 19.0859C118.596 19.6068 118.786 20 119.166 20.2656C119.547 20.5312 120.031 20.6641 120.619 20.6641ZM131.673 6.49996V22.5H128.845V6.49996H131.673ZM134.486 6.49996H138.033L142.783 18.0937H142.97L147.72 6.49996H151.267V22.5H148.486V11.5078H148.338L143.916 22.4531H141.838L137.416 11.4844H137.267V22.5H134.486V6.49996Z" fill="#111C2D"/>
</svg>
